<svg width="36" height="36" viewBox="0 0 36 36" fill="none" xmlns="http://www.w3.org/2000/svg">
<path d="M29.3313 0H11.5687C9.59745 0 7.99376 1.51404 7.99376 3.375V4.5H5.53676C4.18964 4.5 3.09375 5.59589 3.09375 6.94301V33.557C3.09375 34.9041 4.18964 36 5.53676 36H25.5632C26.9104 36 28.0062 34.9041 28.0062 33.557V31.5H29.3313C31.3025 31.5 32.9062 29.986 32.9062 28.125V3.375C32.9062 1.51404 31.3025 0 29.3313 0ZM25.7562 33.557C25.7562 33.6082 25.7358 33.6572 25.6996 33.6934C25.6635 33.7296 25.6144 33.7499 25.5632 33.75H5.53676C5.48559 33.7499 5.43653 33.7296 5.40034 33.6934C5.36416 33.6572 5.34381 33.6082 5.34375 33.557V6.94301C5.34381 6.89184 5.36416 6.84278 5.40034 6.80659C5.43653 6.77041 5.48559 6.75006 5.53676 6.75H25.5632C25.6144 6.75006 25.6635 6.77041 25.6996 6.80659C25.7358 6.84278 25.7562 6.89184 25.7562 6.94301V33.557ZM30.6562 28.125C30.6562 28.7453 30.0618 29.25 29.3313 29.25H28.0062V6.94301C28.0062 5.59589 26.9104 4.5 25.5632 4.5H10.2438V3.375C10.2438 2.7547 10.8382 2.25 11.5687 2.25H29.3313C30.0618 2.25 30.6562 2.7547 30.6562 3.375V28.125Z" fill="#6989A8"/>
<path d="M21.0938 15.1875H10.4062C9.78497 15.1875 9.28125 14.6838 9.28125 14.0625C9.28125 13.4412 9.78497 12.9375 10.4062 12.9375H21.0938C21.715 12.9375 22.2188 13.4412 22.2188 14.0625C22.2188 14.6838 21.715 15.1875 21.0938 15.1875ZM21.0938 19.6875H10.4062C9.78497 19.6875 9.28125 19.1838 9.28125 18.5625C9.28125 17.9412 9.78497 17.4375 10.4062 17.4375H21.0938C21.715 17.4375 22.2188 17.9412 22.2188 18.5625C22.2188 19.1838 21.715 19.6875 21.0938 19.6875ZM21.0938 24.1875H10.4062C9.78497 24.1875 9.28125 23.6838 9.28125 23.0625C9.28125 22.4412 9.78497 21.9375 10.4062 21.9375H21.0938C21.715 21.9375 22.2188 22.4412 22.2188 23.0625C22.2188 23.6838 21.715 24.1875 21.0938 24.1875Z" fill="#6989A8"/>
</svg>
