<svg width="36" height="36" viewBox="0 0 36 36" fill="none" xmlns="http://www.w3.org/2000/svg">
<path d="M27.8433 14.979V2.4429C27.8433 1.09584 26.7474 0 25.4003 0H5.53726C4.1902 0 3.09436 1.09584 3.09436 2.4429V28.4933C3.09436 29.8403 4.1902 30.9362 5.53726 30.9362H20.5311V34.8735C20.5311 35.7338 21.4627 36.2795 22.2142 35.8502L25.5934 33.9193C29.3257 36.052 29.1306 35.9985 29.5307 35.9985C30.152 35.9985 30.6557 35.4941 30.6557 34.8735V27.2079C34.6597 23.3613 33.0737 16.6745 27.8433 14.979ZM5.53726 28.6863C5.48609 28.6862 5.43704 28.6659 5.40085 28.6297C5.36467 28.5935 5.34432 28.5444 5.34426 28.4933V2.4429C5.34432 2.39173 5.36467 2.34268 5.40085 2.30649C5.43704 2.27031 5.48609 2.24996 5.53726 2.2499H25.4004C25.4516 2.24996 25.5006 2.27031 25.5368 2.30649C25.573 2.34268 25.5933 2.39173 25.5934 2.4429V14.6244C21.5614 14.6244 18.2812 17.9046 18.2812 21.9366C18.2812 24.0056 19.1452 25.8765 20.5311 27.2079V28.6863H5.53726ZM28.4058 32.935L26.1515 31.6469C25.9815 31.5497 25.7891 31.4986 25.5934 31.4986C25.3976 31.4986 25.2052 31.5497 25.0352 31.6469L22.7809 32.935V28.6859C24.5748 29.4362 26.6095 29.4372 28.4057 28.6859L28.4058 32.935ZM25.5934 26.9988C22.802 26.9988 20.5311 24.7279 20.5311 21.9366C20.5311 19.1452 22.802 16.8743 25.5934 16.8743C28.3847 16.8743 30.6557 19.1452 30.6557 21.9366C30.6557 24.7279 28.3847 26.9988 25.5934 26.9988Z" fill="#6989A8"/>
<path d="M25.0299 24.8194C24.5905 24.8194 24.5345 24.7154 22.7196 23.5054C22.2026 23.1607 22.0629 22.4623 22.4075 21.9453C22.7522 21.4284 23.4506 21.2887 23.9675 21.6333L24.719 22.1343L26.3449 19.6954C26.6895 19.1785 27.3881 19.0388 27.9049 19.3834C28.4219 19.7281 28.5616 20.4265 28.217 20.9434L25.9671 24.3183C25.7502 24.6435 25.3934 24.8194 25.0299 24.8194ZM19.4062 7.87466H9.84413C9.22287 7.87466 8.71918 7.37096 8.71918 6.74971C8.71918 6.12845 9.22287 5.62476 9.84413 5.62476H19.4062C20.0275 5.62476 20.5312 6.12845 20.5312 6.74971C20.5312 7.37096 20.0275 7.87466 19.4062 7.87466ZM19.4062 12.3745H9.84413C9.22287 12.3745 8.71918 11.8708 8.71918 11.2495C8.71918 10.6283 9.22287 10.1246 9.84413 10.1246H19.4062C20.0275 10.1246 20.5312 10.6283 20.5312 11.2495C20.5312 11.8708 20.0275 12.3745 19.4062 12.3745ZM15.4689 16.8743H9.84413C9.22287 16.8743 8.71918 16.3706 8.71918 15.7493C8.71918 15.1281 9.22287 14.6244 9.84413 14.6244H15.4689C16.0901 14.6244 16.5938 15.1281 16.5938 15.7493C16.5938 16.3706 16.0901 16.8743 15.4689 16.8743Z" fill="#6989A8"/>
</svg>
