<svg width="36" height="36" viewBox="0 0 36 36" fill="none" xmlns="http://www.w3.org/2000/svg">
<g clip-path="url(#clip0_869_3591)">
<path d="M32.625 0H10.125C8.26404 0 6.75 1.51398 6.75 3.37487V5.62478H3.375C1.51404 5.62478 0 7.13876 0 8.99965V26.999C0 28.8598 1.51404 30.3738 3.375 30.3738H16.1539C16.3898 30.3738 16.6159 30.4462 16.8079 30.5833L24.0961 35.7891C24.8392 36.3199 25.875 35.7876 25.875 34.8736C25.8735 30.2813 25.8679 30.3738 25.875 30.3738C27.736 30.3738 29.25 28.8598 29.25 26.999V24.749H32.625C34.486 24.749 36 23.2351 36 21.3742V3.37487C36 1.51398 34.4859 0 32.625 0ZM27 26.999C27 27.6192 26.4953 28.1239 25.875 28.1239C24.6343 28.1239 23.625 29.1332 23.625 30.3738V32.6876L18.1157 28.7526C17.5399 28.3412 16.8616 28.1239 16.154 28.1239H3.375C2.7547 28.1239 2.25 27.6192 2.25 26.999V8.99965C2.25 8.37938 2.7547 7.87469 3.375 7.87469H25.875C26.4953 7.87469 27 8.37938 27 8.99965V26.999ZM33.75 21.3742C33.75 21.9944 33.2453 22.4991 32.625 22.4991H29.25V8.99965C29.25 7.13876 27.736 5.62478 25.875 5.62478H9V3.37487C9 2.7546 9.5047 2.24991 10.125 2.24991H32.625C33.2453 2.24991 33.75 2.7546 33.75 3.37487V21.3742Z" fill="#6989A8"/>
<path d="M6.58929 21.2143C4.72833 21.2143 3.21429 19.7725 3.21429 18.0001C3.21429 16.2276 4.72833 14.7858 6.58929 14.7858C8.45026 14.7858 9.96429 16.2276 9.96429 18.0001C9.96429 19.7725 8.45026 21.2143 6.58929 21.2143ZM6.58929 16.9286C5.969 16.9286 5.46429 17.4093 5.46429 18.0001C5.46429 18.5908 5.969 19.0715 6.58929 19.0715C7.20959 19.0715 7.71429 18.5908 7.71429 18.0001C7.71429 17.4093 7.20959 16.9286 6.58929 16.9286ZM14.4643 21.2143C12.6033 21.2143 11.0893 19.7725 11.0893 18.0001C11.0893 16.2276 12.6033 14.7858 14.4643 14.7858C16.3253 14.7858 17.8393 16.2276 17.8393 18.0001C17.8393 19.7725 16.3253 21.2143 14.4643 21.2143ZM14.4643 16.9286C13.844 16.9286 13.3393 17.4093 13.3393 18.0001C13.3393 18.5908 13.844 19.0715 14.4643 19.0715C15.0846 19.0715 15.5893 18.5908 15.5893 18.0001C15.5893 17.4093 15.0846 16.9286 14.4643 16.9286ZM22.3393 21.2143C20.4783 21.2143 18.9643 19.7725 18.9643 18.0001C18.9643 16.2276 20.4783 14.7858 22.3393 14.7858C24.2003 14.7858 25.7143 16.2276 25.7143 18.0001C25.7143 19.7725 24.2003 21.2143 22.3393 21.2143ZM22.3393 16.9286C21.719 16.9286 21.2143 17.4093 21.2143 18.0001C21.2143 18.5908 21.719 19.0715 22.3393 19.0715C22.9596 19.0715 23.4643 18.5908 23.4643 18.0001C23.4643 17.4093 22.9596 16.9286 22.3393 16.9286Z" fill="#6989A8"/>
</g>
<defs>
<clipPath id="clip0_869_3591">
<rect width="36" height="36" fill="white"/>
</clipPath>
</defs>
</svg>
