<svg width="36" height="36" viewBox="0 0 36 36" fill="none" xmlns="http://www.w3.org/2000/svg">
<g clip-path="url(#clip0_869_3602)">
<path d="M32.7911 14.9062H31.6818C31.2066 13.9086 30.3237 13.1416 29.25 12.8209V11.5312C29.25 5.32793 24.2033 0.28125 18 0.28125C11.7968 0.28125 6.75 5.32793 6.75 11.5312V12.8209C5.67626 13.1416 4.79341 13.9086 4.31817 14.9062H3.20892C1.43951 14.9062 0 16.3458 0 18.1152V21.8223C0 23.5917 1.43951 25.0312 3.20892 25.0312H4.31817C4.95127 26.3603 6.30745 27.2812 7.875 27.2812C10.0461 27.2812 11.8125 25.5149 11.8125 23.3438V16.5938C11.8125 14.8135 10.6246 13.3062 9 12.8209V11.5312C9 6.56866 13.0373 2.53125 18 2.53125C22.9627 2.53125 27 6.56866 27 11.5312V12.8209C25.3754 13.3061 24.1875 14.8134 24.1875 16.5938V23.3438C24.1875 26.2493 27.2278 28.1317 29.8125 26.9006V29.446C29.8125 30.4234 29.0172 31.2188 28.0397 31.2188H22.3065C21.8421 29.9093 20.5916 28.9688 19.125 28.9688H16.875C15.014 28.9688 13.5 30.4827 13.5 32.3438C13.5 34.2048 15.014 35.7188 16.875 35.7188H19.125C20.5916 35.7188 21.8421 34.7782 22.3065 33.4688H28.0397C30.2579 33.4688 32.0625 31.6641 32.0625 29.446V25.0312H32.7911C34.5605 25.0312 36 23.5917 36 21.8223V18.1152C36 16.3458 34.5605 14.9062 32.7911 14.9062ZM2.25 21.8223V18.1152C2.25 17.5864 2.68017 17.1562 3.20892 17.1562H3.9375V22.7812H3.20892C2.68017 22.7812 2.25 22.3511 2.25 21.8223ZM9.5625 16.5938V23.3438C9.5625 24.2742 8.80545 25.0312 7.875 25.0312C6.94455 25.0312 6.1875 24.2742 6.1875 23.3438V16.5938C6.1875 15.6633 6.94455 14.9062 7.875 14.9062C8.80545 14.9062 9.5625 15.6633 9.5625 16.5938ZM19.125 33.4688H16.875C16.2547 33.4688 15.75 32.964 15.75 32.3438C15.75 31.7235 16.2547 31.2188 16.875 31.2188H19.125C19.7453 31.2188 20.25 31.7235 20.25 32.3438C20.25 32.964 19.7453 33.4688 19.125 33.4688ZM28.125 25.0312C27.1946 25.0312 26.4375 24.2742 26.4375 23.3438V16.5938C26.4375 15.6633 27.1946 14.9062 28.125 14.9062C29.0554 14.9062 29.8125 15.6633 29.8125 16.5938V23.3438C29.8125 24.2742 29.0554 25.0312 28.125 25.0312ZM33.75 21.8223C33.75 22.3511 33.3198 22.7812 32.7911 22.7812H32.0625V17.1562H32.7911C33.3198 17.1562 33.75 17.5864 33.75 18.1152V21.8223Z" fill="#6989A8"/>
</g>
<defs>
<clipPath id="clip0_869_3602">
<rect width="36" height="36" fill="white"/>
</clipPath>
</defs>
</svg>
