<svg width="36" height="36" viewBox="0 0 36 36" fill="none" xmlns="http://www.w3.org/2000/svg">
<path d="M34.2006 15.0672L31.778 13.8742C31.5598 13.764 31.4298 13.5721 31.3593 13.431L29.0854 8.86637C28.5403 7.77703 27.4037 7.07141 26.1902 7.07141H14.0405C12.8076 7.07141 11.6976 7.75941 11.1445 8.86637L8.97578 13.1972C8.82397 13.5148 8.54312 13.6471 8.34276 13.7L2.4629 15.1862C1.01272 15.5303 0 16.8268 0 18.3396V22.494C0 24.2868 1.45342 25.7443 3.23999 25.7443H4.53038C5.20796 27.6121 7.00029 28.9286 9.04513 28.9286C11.0897 28.9286 12.8819 27.6121 13.5595 25.7443H21.4053C22.0829 27.6121 23.8753 28.9286 25.9201 28.9286C27.9647 28.9286 29.7569 27.6121 30.4345 25.7443H32.76C34.5466 25.7443 36 24.2868 36 22.494V17.9779C35.9999 16.7585 35.2968 15.6184 34.2006 15.0672ZM11.576 24.4588C11.4014 25.7201 10.3133 26.6706 9.04513 26.6706C7.77672 26.6706 6.68868 25.7202 6.51385 24.4588C6.49828 24.3486 6.47969 24.2229 6.47969 24.0972C6.47969 22.6638 7.63043 21.4995 9.04513 21.4995C10.4596 21.4995 11.6103 22.6638 11.6103 24.0972C11.6103 24.2229 11.5915 24.3485 11.576 24.4588ZM28.4509 24.4588C28.2763 25.7201 27.1883 26.6706 25.9201 26.6706C24.6517 26.6706 23.5636 25.7202 23.3888 24.4588C23.3732 24.3486 23.3547 24.2229 23.3547 24.0972C23.3547 22.6638 24.5054 21.4995 25.9201 21.4995C27.3346 21.4995 28.4853 22.6638 28.4853 24.0972C28.4853 24.2229 28.4665 24.3485 28.4509 24.4588ZM33.7499 22.494C33.7499 23.0409 33.3059 23.4863 32.7599 23.4863H30.6929C30.3935 21.0971 28.3694 19.2415 25.92 19.2415C23.4705 19.2415 21.4464 21.0971 21.147 23.4863H13.8179C13.5185 21.0971 11.4945 19.2415 9.04505 19.2415C6.59551 19.2415 4.5714 21.0971 4.27204 23.4863H3.23999C2.69409 23.4863 2.25 23.0408 2.25 22.494V18.3396C2.25 17.8787 2.55105 17.4862 2.99729 17.3782L8.90113 15.8853C9.84738 15.6383 10.594 15.0319 10.9951 14.194L13.1552 9.88072C13.3274 9.53453 13.6584 9.32946 14.0406 9.32946H26.1902C26.5603 9.32946 26.9071 9.54556 27.0736 9.87857L29.3467 14.4409C29.6676 15.0848 30.1603 15.5876 30.7791 15.8985L33.2013 17.0915C33.5347 17.2591 33.75 17.6075 33.75 17.978V22.494H33.7499Z" fill="#6989A8"/>
<path d="M25.7483 12.5088C25.5226 11.8805 24.9222 11.4575 24.2537 11.4575H15.983C15.6514 11.4574 15.328 11.5612 15.0584 11.7542C14.7887 11.9473 14.5863 12.22 14.4796 12.534L13.59 15.1539C13.5093 15.3928 13.4864 15.6474 13.5234 15.8969C13.5605 16.1463 13.6562 16.3834 13.8029 16.5885C13.9497 16.7938 14.1433 16.9611 14.3678 17.0766C14.5922 17.192 14.8409 17.2523 15.0933 17.2524H25.1957C25.4502 17.2524 25.701 17.1911 25.9268 17.0737C26.1526 16.9563 26.3469 16.7863 26.4931 16.578C26.7905 16.1571 26.8642 15.6147 26.6892 15.1267L25.7483 12.5088ZM15.8709 15.1079L16.3821 13.6021H23.8621L24.4037 15.1079H15.8709Z" fill="#6989A8"/>
</svg>
