<svg width="36" height="36" viewBox="0 0 36 36" fill="none" xmlns="http://www.w3.org/2000/svg">
<path fill-rule="evenodd" clip-rule="evenodd" d="M9.91406 1.05469C9.91406 0.4722 10.3863 0 10.9688 0H25.0312C25.6137 0 26.0859 0.4722 26.0859 1.05469C26.0859 1.63718 25.6137 2.10938 25.0312 2.10938H24.6797V7.04278C27.4282 7.22369 29.6016 9.51039 29.6016 12.3047V26.5078C29.6016 29.3021 27.4282 31.5888 24.6797 31.7697V34.9453C24.6797 35.5278 24.2075 36 23.625 36H12.375C11.7925 36 11.3203 35.5278 11.3203 34.9453V31.7697C8.57179 31.5888 6.39844 29.3021 6.39844 26.5078V12.3047C6.39844 9.51039 8.57179 7.22369 11.3203 7.04278V2.10938H10.9688C10.3863 2.10938 9.91406 1.63718 9.91406 1.05469ZM13.4297 2.10938V7.03125H16.9453V5.27344C16.9453 4.69095 17.4175 4.21875 18 4.21875C18.5825 4.21875 19.0547 4.69095 19.0547 5.27344V7.03125H22.5703V2.10938H13.4297ZM11.6719 9.14062C9.92442 9.14062 8.50781 10.5572 8.50781 12.3047V26.5078C8.50781 28.2553 9.92442 29.6719 11.6719 29.6719H24.3281C26.0756 29.6719 27.4922 28.2553 27.4922 26.5078V12.3047C27.4922 10.5572 26.0756 9.14062 24.3281 9.14062H11.6719ZM13.4297 31.7812V33.8906H22.5703V31.7812H13.4297Z" fill="#6989A8"/>
<path fill-rule="evenodd" clip-rule="evenodd" d="M18.8678 13.1818L18 13.7812L17.1322 13.1818C17.3291 12.8967 17.6535 12.7266 18 12.7266C18.3465 12.7266 18.6708 12.8967 18.8678 13.1818ZM18 15.7014C17.7085 16.1608 17.3725 16.706 17.0373 17.2838C16.578 18.0755 16.1308 18.9104 15.8015 19.6599C15.4532 20.4526 15.3047 21.003 15.3047 21.2813C15.3047 22.7698 16.5114 23.9766 18 23.9766C19.4885 23.9766 20.6953 22.7698 20.6953 21.2813C20.6953 21.003 20.5467 20.4526 20.1984 19.6599C19.8691 18.9104 19.4219 18.0755 18.9627 17.2838C18.6275 16.706 18.2915 16.1608 18 15.7014ZM22.1296 18.8114C22.4845 19.6191 22.8046 20.524 22.8046 21.2813C22.8046 23.9348 20.6535 26.0859 18 26.0859C15.3464 26.0859 13.1953 23.9348 13.1953 21.2813C13.1953 20.524 13.5155 19.6191 13.8703 18.8114C14.2442 17.9605 14.7344 17.0498 15.2127 16.2254C15.6929 15.3975 16.1717 14.6384 16.5295 14.0874C16.7087 13.8115 16.8584 13.5866 16.9636 13.4301C17.0163 13.3518 17.0579 13.2905 17.0866 13.2484C17.1009 13.2274 17.112 13.2111 17.1197 13.2L17.1286 13.187L17.132 13.182C17.1321 13.1819 17.1322 13.1818 18 13.7812C18.8678 13.1818 18.8678 13.1819 18.8679 13.182L18.8713 13.187L18.8802 13.2C18.8879 13.2111 18.899 13.2274 18.9134 13.2484C18.9421 13.2905 18.9837 13.3518 19.0363 13.4301C19.1416 13.5866 19.2912 13.8115 19.4704 14.0874C19.8283 14.6384 20.307 15.3975 20.7873 16.2254C21.2655 17.0498 21.7558 17.9605 22.1296 18.8114Z" fill="#6989A8"/>
</svg>
