<svg width="18" height="18" viewBox="0 0 18 18" fill="none" xmlns="http://www.w3.org/2000/svg">
<path d="M17.9434 11.7251L17.612 12.908C17.5236 13.1936 17.3689 13.4383 17.1259 13.6423C17.0596 13.7034 16.9712 13.7646 16.8828 13.8258L16.4851 15.1515C16.463 15.2535 16.3967 15.3555 16.3304 15.437C16.1095 15.7022 15.7559 15.8042 15.4024 15.7226L14.5407 15.5186C14.0767 15.3963 13.7894 14.9476 13.922 14.5193L14.1429 13.7238L7.31533 12.031L7.09437 12.8265C6.96179 13.2548 6.47568 13.5199 6.01167 13.3975L5.14993 13.1936C4.7964 13.112 4.55334 12.8265 4.50915 12.5205C4.48706 12.4185 4.50915 12.2962 4.53125 12.1942L4.90688 10.8685C4.86269 10.7869 4.81849 10.685 4.7964 10.6034C4.70802 10.3178 4.70802 10.0119 4.7743 9.72638L5.10574 8.54345C5.23832 8.05397 5.61395 7.66646 6.12215 7.46251C6.27682 7.40132 6.45359 7.36053 6.63035 7.34014L7.13856 6.72828L8.02239 5.62694C8.11078 5.50456 8.22126 5.40259 8.33174 5.30061C8.55269 5.09666 8.79575 4.9335 9.0609 4.81113C9.19347 4.74994 9.32605 4.68875 9.48072 4.64796C9.76797 4.56638 10.0552 4.5052 10.3646 4.5052C10.6739 4.4848 10.9832 4.52559 11.2926 4.60717L14.6732 5.44338C14.9826 5.52496 15.2698 5.62694 15.535 5.7697C16.3304 6.2184 16.8386 6.99342 16.9491 7.85002L17.1259 9.2165L17.2143 9.99152C17.5015 10.1751 17.7225 10.4402 17.833 10.7461C18.0318 11.0521 18.0318 11.3988 17.9434 11.7251ZM7.40371 8.68622C6.96179 8.54345 6.49778 8.7678 6.34311 9.17571C6.34311 9.1961 6.32101 9.23689 6.32101 9.25729C6.16634 9.66519 6.4094 10.0935 6.85131 10.2363C6.87341 10.2363 6.9176 10.2567 6.9397 10.2567C7.4479 10.379 8.19916 10.6442 8.33174 10.1751C8.46431 9.70598 7.91191 8.80859 7.40371 8.68622ZM15.4245 9.40005L15.2477 8.03357C15.2256 7.9112 15.1815 7.78883 15.1373 7.68685C14.9826 7.34014 14.6512 7.09539 14.2755 7.01381L10.8728 6.17761C10.3425 6.05524 9.79006 6.2184 9.45862 6.6263L8.57479 7.72764L13.3254 8.91057L15.4245 9.40005ZM15.9327 10.7869C15.4245 10.6646 14.4523 11.1744 14.3197 11.6435C14.1871 12.1126 14.9826 12.235 15.4908 12.3574C15.9548 12.5205 16.463 12.2962 16.6177 11.8679C16.7724 11.4396 16.5514 10.9705 16.0874 10.8277C16.0432 10.8073 15.9769 10.8073 15.9327 10.7869Z" fill="#33B6FF"/>
<path d="M4.15478 8.22244L3.78367 9.4815C3.69089 9.78541 3.6677 10.111 3.71409 10.4149L2.69353 11.1964C2.57756 11.2833 2.4152 11.2615 2.32242 11.153C2.27603 11.0879 2.25284 11.0228 2.27603 10.9576L2.71673 8.87368C2.73992 8.74343 2.64714 8.61318 2.50797 8.59148H2.48478L0.234915 8.39611C0.0957481 8.3744 -0.0202243 8.26586 0.00297018 8.13561C0.00297018 8.07049 0.0493592 8.00537 0.118943 7.96195L1.9977 6.78972C2.11367 6.70289 2.16006 6.55094 2.06728 6.4424C2.06728 6.4424 2.06728 6.42069 2.04408 6.42069L0.606027 4.7926C0.513249 4.68406 0.536443 4.53211 0.652416 4.44527C0.721999 4.40186 0.791583 4.38015 0.861166 4.40186L3.08784 4.81431C3.227 4.83602 3.36617 4.74918 3.38937 4.61894V4.59723L3.59812 2.46986C3.62131 2.33961 3.73728 2.23107 3.87645 2.25278C3.94603 2.25278 4.01562 2.2962 4.06201 2.36132L5.31451 4.11966C5.38409 4.2282 5.54645 4.27161 5.68562 4.18478C5.68562 4.18478 5.70881 4.18478 5.70881 4.16307L7.4484 2.81718C7.56437 2.73035 7.72673 2.75206 7.81951 2.8606C7.8659 2.92572 7.8891 2.99085 7.8659 3.05597L7.54118 4.57552C7.47159 4.66235 7.37882 4.74918 7.30923 4.83602L6.38145 6.00824L6.07993 6.39898C5.17534 6.61606 4.40992 7.33242 4.15478 8.22244Z" fill="#33B6FF"/>
</svg>
