<svg width="16" height="16" viewBox="0 0 16 16" fill="none" xmlns="http://www.w3.org/2000/svg">
<g clip-path="url(#clip0_416_15800)">
<path d="M8.00036 0.470703L8.47095 3.24366L8.00036 6.01662L2.82508 5.74236C2.77263 2.84943 5.10945 0.470703 8.00036 0.470703Z" fill="#90CC1C"/>
<path d="M13.1753 5.74233L8 6.01659V0.470703C10.8796 0.470703 13.228 2.83795 13.1753 5.74233Z" fill="#00B44B"/>
<path d="M2.82472 5.74219C2.82472 5.74219 5.64825 10.2823 5.64825 10.2578C5.64797 10.2736 6.96471 12.2666 6.96471 12.2666L8 14.6894C7.16628 15.2341 6.19269 15.5294 5.17647 15.5294C2.32223 15.5294 0 13.2073 0 10.3529C0 8.35947 1.13594 6.60707 2.82472 5.74219Z" fill="#FF435B"/>
<path d="M13.1753 5.74219C14.8651 6.60757 16 8.36054 16 10.3529C16 13.2071 13.6779 15.5294 10.8235 15.5294C9.80759 15.5294 8.83398 15.2342 8 14.6894L10.0183 9.74639L13.1753 5.74219Z" fill="#4B7EEC"/>
<path d="M8.00047 6.01657L5.64872 10.2579C3.96982 9.39806 2.8603 7.67727 2.8252 5.74228C4.44518 4.91266 6.42535 4.98752 8.00047 6.01657Z" fill="#FFDA2D"/>
<path d="M10.3517 10.258L8 6.01669C9.55771 4.999 11.5364 4.90312 13.1753 5.74243C13.1402 7.67417 12.0336 9.39671 10.3517 10.258Z" fill="#4BB9EC"/>
<path d="M5.64844 10.2579C5.68034 8.4993 6.59617 6.9339 8.00019 6.0166L8.47078 8.42012L8.00019 10.8236L6.79059 11.0432L5.64844 10.2579Z" fill="#FDBF00"/>
<path d="M10.3517 10.2579L9.2096 10.9884L8 10.8237V6.0166C9.40367 6.93372 10.3198 8.49892 10.3517 10.2579Z" fill="#FF9721"/>
<path d="M8.00007 14.6894C6.52807 13.7277 5.61538 12.074 5.64832 10.2578C6.37601 10.6305 7.17789 10.8236 8.00007 10.8236L8.47066 12.7565L8.00007 14.6894Z" fill="#FF7B4A"/>
<path d="M10.3517 10.2578C10.3847 12.0768 9.46965 13.7292 8 14.6894V10.8236C8.82083 10.8236 9.62284 10.6311 10.3517 10.2578Z" fill="#FF435B"/>
</g>
<defs>
<clipPath id="clip0_416_15800">
<rect width="16" height="16" fill="white"/>
</clipPath>
</defs>
</svg>
