<svg width="20" height="20" viewBox="0 0 20 20" fill="none" xmlns="http://www.w3.org/2000/svg">
<g clip-path="url(#clip0_869_2838)">
<path d="M10.0001 20.0001C15.523 20.0001 20.0001 15.523 20.0001 10.0001C20.0001 4.47719 15.523 0 10.0001 0C4.47719 0 0 4.47719 0 10.0001C0 15.523 4.47719 20.0001 10.0001 20.0001Z" fill="#CF1F25"/>
<path d="M11.291 10.0001L14.2274 7.06368C14.3225 6.98218 14.3998 6.88189 14.4544 6.7691C14.509 6.65632 14.5396 6.53347 14.5445 6.40827C14.5493 6.28307 14.5282 6.15822 14.4825 6.04156C14.4368 5.9249 14.3675 5.81895 14.2789 5.73035C14.1903 5.64175 14.0843 5.57243 13.9677 5.52672C13.851 5.48102 13.7262 5.45992 13.601 5.46476C13.4758 5.46959 13.3529 5.50026 13.2401 5.55483C13.1273 5.60939 13.027 5.68668 12.9455 5.78185L10.0001 8.71824L7.07278 5.78185C6.9028 5.61066 6.67177 5.51401 6.43053 5.51316C6.18929 5.51231 5.95759 5.60732 5.7864 5.7773C5.61522 5.94729 5.51857 6.17831 5.51771 6.41955C5.51686 6.66079 5.61188 6.89249 5.78186 7.06368L8.71824 10.0001L5.78186 12.9364C5.68669 13.0179 5.6094 13.1182 5.55483 13.231C5.50027 13.3438 5.4696 13.4667 5.46477 13.5919C5.45993 13.7171 5.48103 13.8419 5.52673 13.9586C5.57244 14.0752 5.64176 14.1812 5.73036 14.2698C5.81895 14.3584 5.92491 14.4277 6.04157 14.4734C6.15823 14.5191 6.28307 14.5402 6.40827 14.5354C6.53347 14.5305 6.65632 14.4999 6.76911 14.4453C6.8819 14.3907 6.98219 14.3134 7.06369 14.2183L10.0001 11.291L12.9365 14.2274C13.1104 14.3763 13.3341 14.4541 13.5629 14.4453C13.7917 14.4365 14.0087 14.3416 14.1706 14.1797C14.3325 14.0178 14.4274 13.8008 14.4362 13.572C14.445 13.3432 14.3672 13.1195 14.2183 12.9455L11.291 10.0001Z" fill="white"/>
</g>
<defs>
<clipPath id="clip0_869_2838">
<rect width="20" height="20" fill="white"/>
</clipPath>
</defs>
</svg>
