<svg width="16" height="16" viewBox="0 0 16 16" fill="none" xmlns="http://www.w3.org/2000/svg">
<g clip-path="url(#clip0_416_15815)">
<path d="M14.3333 12H12.3333C12.2449 12 12.1601 11.9649 12.0976 11.9024C12.0351 11.8399 12 11.7551 12 11.6667C12 11.5783 12.0351 11.4935 12.0976 11.431C12.1601 11.3685 12.2449 11.3333 12.3333 11.3333H14.3333C14.8847 11.3333 15.3333 10.8847 15.3333 10.3333V5.66667C15.3333 5.11533 14.8847 4.66667 14.3333 4.66667H1.66667C1.11533 4.66667 0.666667 5.11533 0.666667 5.66667V10.3333C0.666667 10.8847 1.11533 11.3333 1.66667 11.3333H3.66667C3.75507 11.3333 3.83986 11.3685 3.90237 11.431C3.96488 11.4935 4 11.5783 4 11.6667C4 11.7551 3.96488 11.8399 3.90237 11.9024C3.83986 11.9649 3.75507 12 3.66667 12H1.66667C1.2248 11.9995 0.801186 11.8237 0.48874 11.5113C0.176294 11.1988 0.000529286 10.7752 0 10.3333V5.66667C0 4.748 0.747333 4 1.66667 4H14.3333C15.2527 4 16 4.748 16 5.66667V10.3333C16 11.252 15.2527 12 14.3333 12ZM9.66667 14H5.66667C5.57826 14 5.49348 13.9649 5.43096 13.9024C5.36845 13.8399 5.33333 13.7551 5.33333 13.6667C5.33333 13.5783 5.36845 13.4935 5.43096 13.431C5.49348 13.3685 5.57826 13.3333 5.66667 13.3333H9.66667C9.75507 13.3333 9.83986 13.3685 9.90237 13.431C9.96488 13.4935 10 13.5783 10 13.6667C10 13.7551 9.96488 13.8399 9.90237 13.9024C9.83986 13.9649 9.75507 14 9.66667 14ZM9.66667 12.6667H5.66667C5.57826 12.6667 5.49348 12.6315 5.43096 12.569C5.36845 12.5065 5.33333 12.4217 5.33333 12.3333C5.33333 12.2449 5.36845 12.1601 5.43096 12.0976C5.49348 12.0351 5.57826 12 5.66667 12H9.66667C9.75507 12 9.83986 12.0351 9.90237 12.0976C9.96488 12.1601 10 12.2449 10 12.3333C10 12.4217 9.96488 12.5065 9.90237 12.569C9.83986 12.6315 9.75507 12.6667 9.66667 12.6667Z" fill="white"/>
<path d="M6.99967 11.3333H5.66634C5.57794 11.3333 5.49315 11.2982 5.43064 11.2357C5.36813 11.1732 5.33301 11.0884 5.33301 11C5.33301 10.9116 5.36813 10.8268 5.43064 10.7643C5.49315 10.7018 5.57794 10.6667 5.66634 10.6667H6.99967C7.08808 10.6667 7.17286 10.7018 7.23538 10.7643C7.29789 10.8268 7.33301 10.9116 7.33301 11C7.33301 11.0884 7.29789 11.1732 7.23538 11.2357C7.17286 11.2982 7.08808 11.3333 6.99967 11.3333ZM12.333 4.66667C12.2446 4.66667 12.1598 4.63155 12.0973 4.56904C12.0348 4.50652 11.9997 4.42174 11.9997 4.33333V1.66667C11.9997 1.11533 11.551 0.666667 10.9997 0.666667H4.99967C4.44834 0.666667 3.99967 1.11533 3.99967 1.66667V4.33333C3.99967 4.42174 3.96456 4.50652 3.90204 4.56904C3.83953 4.63155 3.75475 4.66667 3.66634 4.66667C3.57794 4.66667 3.49315 4.63155 3.43064 4.56904C3.36813 4.50652 3.33301 4.42174 3.33301 4.33333V1.66667C3.33301 0.748 4.08034 0 4.99967 0H10.9997C11.919 0 12.6663 0.748 12.6663 1.66667V4.33333C12.6663 4.42174 12.6312 4.50652 12.5687 4.56904C12.5062 4.63155 12.4214 4.66667 12.333 4.66667Z" fill="white"/>
<path d="M10.9997 15.9998H4.99967C4.55781 15.9993 4.13419 15.8235 3.82175 15.5111C3.5093 15.1987 3.33354 14.775 3.33301 14.3332V8.99984C3.33301 8.91143 3.36813 8.82665 3.43064 8.76413C3.49315 8.70162 3.57794 8.6665 3.66634 8.6665H12.333C12.4214 8.6665 12.5062 8.70162 12.5687 8.76413C12.6312 8.82665 12.6663 8.91143 12.6663 8.99984V14.3332C12.6663 15.2518 11.919 15.9998 10.9997 15.9998ZM3.99967 9.33317V14.3332C3.99967 14.8845 4.44834 15.3332 4.99967 15.3332H10.9997C11.551 15.3332 11.9997 14.8845 11.9997 14.3332V9.33317H3.99967Z" fill="white"/>
</g>
<defs>
<clipPath id="clip0_416_15815">
<rect width="16" height="16" fill="white"/>
</clipPath>
</defs>
</svg>
