<svg width="12" height="12" viewBox="0 0 12 12" fill="none" xmlns="http://www.w3.org/2000/svg">
<g clip-path="url(#clip0_3301_15862)">
<path d="M6 12C9.31371 12 12 9.31371 12 6C12 2.68629 9.31371 0 6 0C2.68629 0 0 2.68629 0 6C0 9.31371 2.68629 12 6 12Z" fill="#F0F0F0"/>
<path d="M5.47824 6C5.47824 6 1.76084 10.2435 1.75732 10.2426C2.84309 11.3284 4.34311 12 5.99998 12C9.31367 12 12 9.31369 12 6H5.47824Z" fill="#D80027"/>
<path d="M1.75736 1.75781C-0.585785 4.10095 -0.585785 7.89996 1.75736 10.2431L6.00001 6.00047L1.75736 1.75781Z" fill="#0052B4"/>
</g>
<defs>
<clipPath id="clip0_3301_15862">
<rect width="12" height="12" fill="white"/>
</clipPath>
</defs>
</svg>
