<svg width="36" height="36" viewBox="0 0 36 36" fill="none" xmlns="http://www.w3.org/2000/svg">
<path d="M23.5544 0H9.09534C6.98293 0 5.26372 1.7204 5.26372 3.83154V17.9999H4.88941C4.03686 17.9999 3.34552 18.6907 3.34552 19.544V28.9075C3.34552 29.7607 4.03686 30.4514 4.88941 30.4514H5.26372V32.1684C5.26372 34.2818 6.98293 35.9999 9.09526 35.9999H28.8239C30.935 35.9999 32.6542 34.2818 32.6542 32.1684V9.06824L23.5544 0ZM5.89973 20.8301C6.43935 20.7442 7.14234 20.6959 7.88446 20.6959C9.11766 20.6959 9.91735 20.9172 10.544 21.3891C11.2183 21.8904 11.6419 22.6907 11.6419 23.8369C11.6419 25.0795 11.1894 25.9373 10.5628 26.4669C9.87904 27.0352 8.83826 27.3048 7.56675 27.3048C6.80544 27.3048 6.26583 27.2566 5.89981 27.2083L5.89973 20.8301ZM28.824 33.6534H9.09534C8.27736 33.6534 7.61133 32.9874 7.61133 32.1684V30.4514H26.0026C26.8551 30.4514 27.5466 29.7607 27.5466 28.9075V19.544C27.5466 18.6907 26.8552 17.9999 26.0026 17.9999H7.61133V3.83154C7.61133 3.01483 8.27736 2.3488 9.09534 2.3488L22.6765 2.33462V7.35471C22.6765 8.82102 23.8663 10.0119 25.3336 10.0119L30.2514 9.99778L30.3067 32.1683C30.3068 32.9874 29.6418 33.6534 28.824 33.6534ZM12.3102 24.0391C12.3102 22.0929 13.553 20.6383 15.4705 20.6383C17.4651 20.6383 18.5536 22.1316 18.5536 23.9238C18.5536 26.0526 17.2627 27.3435 15.3645 27.3435C13.4377 27.3435 12.3102 25.8892 12.3102 24.0391ZM22.8448 26.1197C23.2878 26.1197 23.7791 26.0232 24.0686 25.9078L24.2898 27.0541C24.0203 27.1895 23.4131 27.3342 22.6235 27.3342C20.3782 27.3342 19.2221 25.9373 19.2221 24.0875C19.2221 21.8716 20.8025 20.6384 22.7676 20.6384C23.529 20.6384 24.1068 20.7925 24.3668 20.9266L24.0685 22.0929C23.7696 21.9668 23.3553 21.8516 22.8353 21.8516C21.6691 21.8516 20.7636 22.5554 20.7636 24.0004C20.7637 25.3007 21.5344 26.1197 22.8448 26.1197Z" fill="#2983D7"/>
<path d="M10.0814 23.8851C10.0908 22.5354 9.30068 21.8234 8.03851 21.8234C7.71072 21.8234 7.49889 21.8516 7.3736 21.881V26.1292C7.49889 26.1587 7.70139 26.1587 7.88439 26.1587C9.21414 26.168 10.0814 25.436 10.0814 23.8851ZM17.0027 23.971C17.0027 22.806 16.4437 21.8034 15.4322 21.8034C14.4396 21.8034 13.8612 22.7482 13.8612 24.0098C13.8612 25.2819 14.459 26.1774 15.4417 26.1774C16.4343 26.1774 17.0027 25.2335 17.0027 23.971Z" fill="#2983D7"/>
</svg>
