<svg width="20" height="22" viewBox="0 0 20 22" fill="none" xmlns="http://www.w3.org/2000/svg">
<g clip-path="url(#clip0_113_8609)">
<path d="M10 22C15.5228 22 20 17.5228 20 12C20 6.47715 15.5228 2 10 2C4.47715 2 0 6.47715 0 12C0 17.5228 4.47715 22 10 22Z" fill="#F0F0F0"/>
<path d="M19.378 15.478C19.78 14.3946 20 13.2229 20 11.9997C20 10.7765 19.78 9.6048 19.378 8.52148H0.621992C0.220039 9.6048 0 10.7765 0 11.9997C0 13.2229 0.220039 14.3946 0.621992 15.478L10 16.3475L19.378 15.478Z" fill="#0052B4"/>
<path d="M10.0001 22.0003C14.2997 22.0003 17.9652 19.2865 19.3781 15.4785H0.62207C2.035 19.2865 5.70043 22.0003 10.0001 22.0003Z" fill="#D80027"/>
</g>
<defs>
<clipPath id="clip0_113_8609">
<rect width="20" height="20" fill="white" transform="translate(0 2)"/>
</clipPath>
</defs>
</svg>
