<svg width="20" height="20" viewBox="0 0 20 20" fill="none" xmlns="http://www.w3.org/2000/svg">
<g clip-path="url(#clip0_113_8579)">
<path d="M10 20C15.5228 20 20 15.5228 20 10C20 4.47715 15.5228 0 10 0C4.47715 0 0 4.47715 0 10C0 15.5228 4.47715 20 10 20Z" fill="#EE1C25"/>
<path d="M15.3407 11.5788L14.3587 11.5628L14.0393 10.6348L13.7207 11.5628L12.7387 11.5795L13.5233 12.1688L13.236 13.1068L14.04 12.5435L14.844 13.1068L14.556 12.1688L15.3407 11.5788ZM11.7393 7.15149L11.7553 6.16949L12.6833 5.85016L11.7553 5.53083L11.7387 4.54883L11.1493 5.33349L10.2107 5.04683L10.7747 5.85083L10.2107 6.65483L11.1493 6.36616L11.7393 7.15149ZM11.7393 15.4515L11.7553 14.4695L12.6833 14.1502L11.7553 13.8308L11.7387 12.8488L11.1493 13.6335L10.2107 13.3468L10.7747 14.1508L10.2107 14.9548L11.1493 14.6662L11.7393 15.4515ZM14.4353 8.35816L14.866 7.47616L13.984 7.90683L13.278 7.22416L13.416 8.1955L12.5493 8.65616L13.5167 8.82616L13.6867 9.79349L14.146 8.92616L15.118 9.0635L14.4353 8.35816ZM9.00734 8.80949L6.36001 8.76549L5.49934 6.26416L4.63934 8.76616L1.99268 8.81083L4.10801 10.4008L3.33334 12.9308L5.50068 11.4115L7.66868 12.9295L6.89268 10.4002L9.00734 8.80949Z" fill="#FFFF00"/>
</g>
<defs>
<clipPath id="clip0_113_8579">
<rect width="20" height="20" fill="white"/>
</clipPath>
</defs>
</svg>
