<svg width="20" height="22" viewBox="0 0 20 22" fill="none" xmlns="http://www.w3.org/2000/svg">
<g clip-path="url(#clip0_113_8593)">
<path d="M10 22C15.5228 22 20 17.5228 20 12C20 6.47715 15.5228 2 10 2C4.47715 2 0 6.47715 0 12C0 17.5228 4.47715 22 10 22Z" fill="#F0F0F0"/>
<path d="M4.22264 16.1782L4.72264 15.8449L5.60931 17.1769L5.11064 17.5096L4.22264 16.1782ZM3.82264 13.8862L4.32264 13.5529L6.39331 16.6596L5.89331 16.9929L3.82264 13.8862ZM3.05597 14.3689L3.55531 14.0356L4.44197 15.3669L3.94331 15.7002L3.05597 14.3689ZM2.27197 14.8862L2.77131 14.5529L4.84197 17.6596L4.34264 17.9929L2.27197 14.8862ZM14.374 6.88622L14.8733 6.55356L16.944 9.66022L16.4446 9.99289L14.374 6.88622ZM13.6066 7.36889L14.106 7.03622L14.9926 8.36756L14.494 8.70089L13.6066 7.36889ZM14.7353 9.12222L15.2353 8.78956L16.122 10.1209L15.6233 10.4542L14.7353 9.12222ZM15.1573 6.36956L15.6573 6.03622L16.544 7.36822L16.0453 7.70089L15.1573 6.36956ZM16.3433 8.08622L16.8433 7.75289L17.73 9.08489L17.2313 9.41756L16.3433 8.08622ZM14.3666 17.1436L15.2546 15.8122L15.754 16.1456L14.8666 17.4762L14.3666 17.1436ZM15.5646 15.3749L16.452 14.0436L16.9513 14.3762L16.064 15.7076L15.5646 15.3749ZM15.1706 17.6442L16.0573 16.3129L16.5573 16.6456L15.6693 17.9769L15.1706 17.6442ZM16.3306 15.9322L17.2173 14.6009L17.7173 14.9336L16.8293 16.2649L16.3306 15.9322ZM13.5646 16.6429L14.452 15.3116L14.952 15.6449L14.064 16.9756L13.5646 16.6429ZM14.7613 14.8742L15.6486 13.5429L16.1486 13.8762L15.2606 15.2069L14.7613 14.8742ZM3.05664 9.62489L5.12731 6.51822L5.62731 6.85156L3.55597 9.95822L3.05664 9.62489ZM3.85997 10.1269L5.93131 7.02022L6.43064 7.35356L4.35931 10.4602L3.85997 10.1269ZM2.29064 9.06956L4.36131 5.96289L4.86131 6.29622L2.78997 9.40222L2.29064 9.06956Z" fill="black"/>
<path d="M9.99994 15.7333C12.0618 15.7333 13.7333 14.0618 13.7333 11.9999C13.7333 9.93807 12.0618 8.2666 9.99994 8.2666C7.93807 8.2666 6.2666 9.93807 6.2666 11.9999C6.2666 14.0618 7.93807 15.7333 9.99994 15.7333Z" fill="#ED1C24"/>
<path d="M12.6 11.9999C11.8667 11.2665 10.7334 11.2665 10 11.9999C9.2667 12.7332 8.13336 12.7332 7.40003 11.9999C6.73336 11.3332 6.6667 10.2665 7.2667 9.5332C5.8667 11.0665 6.00003 13.3999 7.53336 14.7999C9.00003 16.1332 11.2667 16.0665 12.6667 14.6665C13.3334 13.8665 13.3334 12.7332 12.6 11.9999Z" fill="#0071BC"/>
</g>
<defs>
<clipPath id="clip0_113_8593">
<rect width="20" height="20" fill="white" transform="translate(0 2)"/>
</clipPath>
</defs>
</svg>
