<svg width="20" height="22" viewBox="0 0 20 22" fill="none" xmlns="http://www.w3.org/2000/svg">
<g clip-path="url(#clip0_113_8643)">
<path d="M0.62207 15.4779C2.035 19.2859 5.70043 21.9997 10.0001 21.9997C14.2997 21.9997 17.9652 19.2859 19.3781 15.4779L10.0001 14.6084L0.62207 15.4779Z" fill="#FFDA44"/>
<path d="M10.0001 2C5.70043 2 2.035 4.71375 0.62207 8.52176L10.0001 9.39129L19.3781 8.52172C17.9652 4.71375 14.2997 2 10.0001 2Z" fill="black"/>
<path d="M0.621992 8.52148C0.220039 9.6048 0 10.7765 0 11.9997C0 13.2229 0.220039 14.3946 0.621992 15.478H19.378C19.78 14.3946 20 13.2229 20 11.9997C20 10.7765 19.78 9.6048 19.378 8.52148H0.621992Z" fill="#D80027"/>
</g>
<defs>
<clipPath id="clip0_113_8643">
<rect width="20" height="20" fill="white" transform="translate(0 2)"/>
</clipPath>
</defs>
</svg>
