<svg width="19" height="18" viewBox="0 0 19 18" fill="none" xmlns="http://www.w3.org/2000/svg">
<path d="M9.5 2C6.74299 2 4.5 4.27451 4.5 7.07025C4.5 10.5398 8.97451 15.6334 9.16502 15.8486C9.34395 16.0507 9.65637 16.0503 9.83498 15.8486C10.0255 15.6334 14.5 10.5398 14.5 7.07025C14.4999 4.27451 12.257 2 9.5 2ZM9.5 9.62123C8.11288 9.62123 6.9844 8.47687 6.9844 7.07025C6.9844 5.66363 8.1129 4.51929 9.5 4.51929C10.8871 4.51929 12.0156 5.66366 12.0156 7.07028C12.0156 8.47689 10.8871 9.62123 9.5 9.62123Z" fill="#33B6FF"/>
</svg>
