<svg width="20" height="20" viewBox="0 0 20 20" fill="none" xmlns="http://www.w3.org/2000/svg">
<path d="M9.99997 0C4.48599 0 0 4.48593 0 9.99979C0 15.5139 4.48599 20 9.99997 20C10.502 20 10.9091 19.593 10.9091 19.0909C10.9091 18.5889 10.502 18.1818 9.99997 18.1818C5.48847 18.1818 1.81818 14.5113 1.81818 9.99979C1.81812 5.48847 5.48847 1.81818 9.99997 1.81818C14.5115 1.81818 18.1818 5.48847 18.1818 9.99979V12.2729C18.1818 13.0249 17.5699 13.6366 16.8179 13.6366C16.066 13.6366 15.4543 13.0249 15.4543 12.2729V9.99979C15.4543 6.99216 13.0075 4.54526 9.99997 4.54526C6.99234 4.54526 4.5455 6.99216 4.5455 9.99979C4.5455 13.0077 6.99234 15.4547 9.99997 15.4547C11.5713 15.4547 12.9892 14.7865 13.9855 13.7196C14.5132 14.7486 15.5843 15.4547 16.8179 15.4547C18.5725 15.4547 19.9999 14.0274 19.9999 12.2729V9.99979C19.9999 4.48593 15.514 0 9.99997 0ZM9.99997 13.6366C7.99488 13.6366 6.36368 12.0051 6.36368 9.99979C6.36368 7.9947 7.99488 6.36344 9.99997 6.36344C12.005 6.36344 13.6361 7.9947 13.6361 9.99979C13.6361 12.0051 12.0049 13.6366 9.99997 13.6366Z" fill="#33B6FF"/>
</svg>
