<svg width="36" height="36" viewBox="0 0 36 36" fill="none" xmlns="http://www.w3.org/2000/svg">
<path d="M10.6045 23.1613C10.6045 22.5634 10.1897 22.2069 9.45772 22.2069C9.15883 22.2069 8.9564 22.2364 8.85052 22.2646V24.1828C8.97589 24.2111 9.13 24.2205 9.34243 24.2205C10.1226 24.2205 10.6045 23.8263 10.6045 23.1613ZM15.1357 22.227C14.8079 22.227 14.5961 22.2553 14.4708 22.2846V26.5329C14.5962 26.5623 14.7986 26.5623 14.9816 26.5623C16.3113 26.5717 17.1786 25.8398 17.1786 24.2888C17.188 22.9401 16.3977 22.227 15.1357 22.227Z" fill="#2983D7"/>
<path d="M23.5543 0H9.09526C6.98293 0 5.26372 1.7204 5.26372 3.83154V17.9999H4.88949C4.03694 17.9999 3.34552 18.6907 3.34552 19.544V28.9075C3.34552 29.7607 4.03686 30.4514 4.88949 30.4514H5.26372V32.1684C5.26372 34.2818 6.98293 35.9999 9.09526 35.9999H28.824C30.935 35.9999 32.6544 34.2818 32.6544 32.1684V9.06824L23.5543 0ZM7.39599 21.2338C7.84847 21.1573 8.48448 21.0997 9.38056 21.0997C10.2861 21.0997 10.9315 21.2725 11.3652 21.6197C11.7795 21.9469 12.059 22.487 12.059 23.1225C12.059 23.758 11.8472 24.2982 11.4618 24.6641C10.9604 25.136 10.2191 25.3478 9.35182 25.3478C9.1588 25.3478 8.9858 25.3383 8.8505 25.3195V27.6414H7.39599V21.2338ZM28.824 33.6534H9.09526C8.27736 33.6534 7.61133 32.9874 7.61133 32.1684V30.4514H26.0026C26.8553 30.4514 27.5466 29.7607 27.5466 28.9075V19.544C27.5466 18.6907 26.8553 17.9999 26.0026 17.9999H7.61133V3.83154C7.61133 3.01483 8.27743 2.3488 9.09526 2.3488L22.6765 2.33462V7.35471C22.6765 8.82102 23.8662 10.0119 25.3336 10.0119L30.2514 9.99778L30.3067 32.1683C30.3067 32.9874 29.6419 33.6534 28.824 33.6534ZM12.9969 27.612V21.2338C13.5364 21.1479 14.2395 21.0997 14.9816 21.0997C16.2148 21.0997 17.0145 21.3209 17.6411 21.7927C18.3154 22.294 18.739 23.0931 18.739 24.2404C18.739 25.4831 18.2865 26.341 17.6598 26.8705C16.9761 27.4388 15.9353 27.7084 14.6638 27.7084C13.9023 27.7084 13.3629 27.6601 12.9969 27.612ZM23.5121 23.8357V25.0301H21.1802V27.6414H19.7063V21.1479H23.6756V22.3517H21.1802V23.8357H23.5121Z" fill="#2983D7"/>
</svg>
