<svg width="20" height="20" viewBox="0 0 20 20" fill="none" xmlns="http://www.w3.org/2000/svg">
<g clip-path="url(#clip0_869_2792)">
<path fill-rule="evenodd" clip-rule="evenodd" d="M10 0C12.6687 0.0473615 15.2117 1.12175 17.0819 2.99196C18.9521 4.86217 20 7.3787 20 10C20 12.6213 18.9521 15.1378 17.0819 17.008C15.2117 18.8783 12.6687 19.9526 10 20C7.33134 19.9526 4.78827 18.8783 2.91806 17.008C1.04785 15.1378 0 12.6213 0 10C0 7.3787 1.04785 4.86217 2.91806 2.99196C4.78827 1.12175 7.33134 0.0473615 10 0ZM7.8854 13.2484L5.39176 10.7973C5.18765 10.5961 5.07303 10.3237 5.07303 10.0397C5.07303 9.75574 5.18765 9.48333 5.39176 9.28218C5.59692 9.08191 5.87442 8.96951 6.16368 8.96951C6.45294 8.96951 6.73045 9.08191 6.9356 9.28218L8.69223 11.0095L13.0644 6.71565C13.2692 6.51519 13.5466 6.40263 13.8358 6.40263C14.1249 6.40263 14.4023 6.51519 14.6071 6.71565C14.811 6.91694 14.9254 7.1893 14.9254 7.4732C14.9254 7.7571 14.811 8.02945 14.6071 8.23075L9.46248 13.2833C9.35805 13.3853 9.2337 13.4656 9.0969 13.5193C8.9601 13.573 8.81367 13.599 8.66639 13.5957C8.51911 13.5925 8.37401 13.56 8.23981 13.5003C8.1056 13.4407 7.98506 13.355 7.8854 13.2484Z" fill="#82AC11"/>
</g>
<defs>
<clipPath id="clip0_869_2792">
<rect width="20" height="20" fill="white"/>
</clipPath>
</defs>
</svg>
