<svg width="36" height="36" viewBox="0 0 36 36" fill="none" xmlns="http://www.w3.org/2000/svg">
<g clip-path="url(#clip0_602_7204)">
<path d="M26.7891 25.3828H23.2059C22.6934 25.3834 22.1886 25.2571 21.7367 25.0151C21.2849 24.7732 20.8999 24.4231 20.6162 23.9963L20.0695 23.1768C19.6576 22.5571 19.0986 22.049 18.4426 21.6978C17.7866 21.3466 17.0538 21.1632 16.3097 21.1641H9.45984C7.71799 21.1641 6.17063 22.157 5.41793 23.6622C4.88756 24.7235 3.82078 25.3828 2.63391 25.3828H2.53125C1.17042 25.3828 0.0703125 26.4833 0.0703125 27.8438V30.6562C0.0703125 32.0132 1.17429 33.1172 2.53125 33.1172H4.3598C4.68647 34.72 6.10685 35.9297 7.80469 35.9297C9.50252 35.9297 10.9229 34.72 11.2496 33.1172H18.4223C18.749 34.72 20.1694 35.9297 21.8672 35.9297C23.565 35.9297 24.9854 34.72 25.3121 33.1172H26.7891C28.3399 33.1172 29.6016 31.8555 29.6016 30.3047V28.1953C29.6016 26.6445 28.3399 25.3828 26.7891 25.3828ZM18.8994 23.9569L19.4461 24.7764C19.5899 24.992 19.7519 25.1949 19.9304 25.3828H14.1328C13.3574 25.3828 12.7266 24.752 12.7266 23.9766V22.5703H16.3097C16.8223 22.5697 17.327 22.6961 17.7789 22.938C18.2308 23.1799 18.6157 23.53 18.8994 23.9569ZM7.80469 34.5234C6.64158 34.5234 5.69531 33.5772 5.69531 32.4141C5.69531 31.251 6.64158 30.3047 7.80469 30.3047C8.9678 30.3047 9.91406 31.251 9.91406 32.4141C9.91406 33.5772 8.9678 34.5234 7.80469 34.5234ZM21.8672 34.5234C20.7041 34.5234 19.7578 33.5772 19.7578 32.4141C19.7578 31.251 20.7041 30.3047 21.8672 30.3047C23.0303 30.3047 23.9766 31.251 23.9766 32.4141C23.9766 33.5772 23.0303 34.5234 21.8672 34.5234ZM28.1953 30.3047C28.1953 31.0801 27.5645 31.7109 26.7891 31.7109H25.3121C24.9854 30.1082 23.565 28.8984 21.8672 28.8984C20.1694 28.8984 18.749 30.1082 18.4223 31.7109H11.2496C10.9229 30.1082 9.50252 28.8984 7.80469 28.8984C6.10685 28.8984 4.68647 30.1082 4.3598 31.7109H2.53125C1.9497 31.7109 1.47656 31.2379 1.47656 30.6562V27.8438C1.47656 27.2603 1.94787 26.7891 2.53125 26.7891H2.63391C4.35698 26.7891 5.90576 25.8318 6.67575 24.291C7.2123 23.2179 8.30025 22.5703 9.45984 22.5703H11.3203V23.9766C11.3203 25.5274 12.582 26.7891 14.1328 26.7891H26.7891C27.5645 26.7891 28.1953 27.4199 28.1953 28.1953V30.3047ZM35.9297 7.80469C35.9297 3.53995 32.46 0.0703125 28.1953 0.0703125C23.9306 0.0703125 20.4609 3.53995 20.4609 7.80469C20.4609 11.3162 22.8078 14.3218 26.0859 15.2466V17.6484H24.6797C24.5505 17.6484 24.4238 17.684 24.3135 17.7513C24.2032 17.8186 24.1136 17.915 24.0545 18.0299C23.9954 18.1447 23.969 18.2737 23.9784 18.4025C23.9877 18.5314 24.0324 18.6552 24.1075 18.7603L27.6231 23.6822C27.9034 24.0744 28.4872 24.0744 28.7674 23.6822L32.2831 18.7603C32.3617 18.6501 32.4069 18.5195 32.4132 18.3842C32.4194 18.2489 32.3865 18.1147 32.3183 17.9977C32.2501 17.8807 32.1496 17.7858 32.0288 17.7246C31.908 17.6633 31.7721 17.6382 31.6375 17.6523L30.3047 17.7922V15.2466C33.5787 14.3228 35.9297 11.3215 35.9297 7.80469ZM21.8672 7.80469C21.8672 4.31536 24.706 1.47656 28.1953 1.47656C31.6846 1.47656 34.5234 4.31536 34.5234 7.80469C34.5234 10.7563 32.4745 13.3882 29.4582 14.0069C28.0896 14.2836 27.0335 14.0164 26.9285 14.0061C24.006 13.4151 21.8672 10.8359 21.8672 7.80469ZM28.1953 22.0637L26.046 19.0547H26.7891C27.1773 19.0547 27.4922 18.7398 27.4922 18.3516V15.5068C27.9598 15.549 28.4309 15.549 28.8984 15.5068V18.573C28.8984 18.9886 29.2581 19.3158 29.675 19.2723L30.2309 19.2139L28.1953 22.0637Z" fill="#33B6FF"/>
<path d="M27.4922 12.0234C27.4922 12.4118 27.8071 12.7266 28.1954 12.7266C28.5836 12.7266 28.8985 12.4118 28.8985 12.0234V11.2005C29.6993 10.918 30.3047 10.1482 30.3047 9.21094C30.3047 8.04551 29.3608 7.10156 28.1954 7.10156C27.8072 7.10156 27.4922 6.78649 27.4922 6.39844C27.4922 6.01073 27.8077 5.69531 28.1954 5.69531H29.6016C29.9899 5.69531 30.3047 5.38045 30.3047 4.99219C30.3047 4.60392 29.9899 4.28906 29.6016 4.28906H28.8985V3.58594C28.8985 3.19767 28.5836 2.88281 28.1954 2.88281C27.8071 2.88281 27.4922 3.19767 27.4922 3.58594V4.41C26.6739 4.70025 26.086 5.48177 26.086 6.39844C26.086 7.56387 27.0299 8.50781 28.1954 8.50781C28.2877 8.5076 28.3792 8.52571 28.4645 8.56109C28.5498 8.59648 28.6272 8.64844 28.6923 8.71397C28.7577 8.77917 28.8096 8.85664 28.845 8.94192C28.8804 9.02721 28.8986 9.11864 28.8986 9.21097C28.8986 9.30331 28.8804 9.39474 28.845 9.48002C28.8096 9.56531 28.7577 9.64277 28.6923 9.70798C28.6272 9.7735 28.5498 9.82546 28.4645 9.86085C28.3792 9.89623 28.2877 9.91435 28.1954 9.91413H26.7891C26.4008 9.91413 26.086 10.2289 26.086 10.6173C26.086 11.0056 26.4008 11.3204 26.7891 11.3204H27.4922V12.0234ZM9.91411 9.91406H11.3204V18.3516C11.3204 18.7398 11.6352 19.0547 12.0235 19.0547H14.836C15.2243 19.0547 15.5391 18.7398 15.5391 18.3516V9.91406H16.9454C17.0746 9.91405 17.2012 9.87845 17.3115 9.81117C17.4218 9.74388 17.5114 9.64752 17.5706 9.53265C17.6297 9.41778 17.656 9.28884 17.6467 9.15999C17.6373 9.03113 17.5926 8.90735 17.5176 8.80221L14.0019 3.88034C13.7218 3.48813 13.1378 3.48806 12.8577 3.88034L9.34205 8.80221C9.267 8.90734 9.22236 9.03111 9.21302 9.15994C9.20368 9.28877 9.23 9.41769 9.2891 9.53255C9.3482 9.6474 9.43778 9.74377 9.54803 9.81107C9.65829 9.87837 9.78494 9.914 9.91411 9.91406ZM13.4297 5.49879L15.579 8.50781H14.836C14.4477 8.50781 14.1329 8.82267 14.1329 9.21094V17.6484H12.7266V9.21094C12.7266 8.82267 12.4118 8.50781 12.0235 8.50781H11.2804L13.4297 5.49879Z" fill="#33B6FF"/>
</g>
<defs>
<clipPath id="clip0_602_7204">
<rect width="36" height="36" fill="white"/>
</clipPath>
</defs>
</svg>
