<svg width="36" height="36" viewBox="0 0 36 36" fill="none" xmlns="http://www.w3.org/2000/svg">
<path d="M35 26.311L34.7911 25.7409C34.225 24.1966 32.2096 21.5623 28.6273 22.6602C27.317 23.0606 24.488 24.1115 22.4597 24.8786C22.5475 24.4169 22.5264 23.9354 22.3905 23.4755C22.1529 22.6703 21.5844 22.0026 20.832 21.6453L14.8419 18.7998H1V32.4477H8.32039V29.6261L20.925 34L35 26.311ZM2.38491 31.0477V20.2004H6.93517V28.6249C6.93487 28.638 6.93487 28.6511 6.93517 28.6642V31.0477H2.38491ZM8.32039 28.1458V20.2004H14.5327L20.243 22.9126C20.6448 23.1033 20.9362 23.445 21.0633 23.8756C21.1904 24.3065 21.1321 24.7541 20.8991 25.1365C20.7451 25.3891 20.5295 25.5829 20.2831 25.7089C20.2215 25.7327 20.1808 25.7483 20.1645 25.7547C20.1343 25.7663 20.1056 25.78 20.0778 25.7953C19.7146 25.9185 19.3073 25.9057 18.9372 25.7315L13.7637 23.2928C13.4156 23.1292 13.0047 23.2809 12.8432 23.6309C12.6813 23.9815 12.8314 24.3977 13.1777 24.5609L18.3517 26.9997C18.7503 27.1876 19.1709 27.2773 19.586 27.2773C20.0205 27.2773 20.4489 27.1791 20.8393 26.9926C21.8839 26.5911 27.1561 24.5725 29.0283 24.0001C31.4717 23.2522 32.7305 24.7935 33.2338 25.6845L20.8003 32.4773L8.32039 28.1458Z" fill="#33B6FF"/>
<path d="M5.35366 27.4517H3.96875V29.5832H5.35366V27.4517Z" fill="#33B6FF"/>
<path d="M29.7966 9.34515L27.5899 3.91265C27.118 2.75066 26.0108 2 24.7681 2H19.1222V3.09822H24.7681C25.5682 3.09822 26.281 3.58157 26.5851 4.32948L29.0518 10.4028H29.4162C29.8244 10.4028 30.1559 10.7384 30.1559 11.1507V16.6094H26.6599V14.6278H16.6573V16.6097H13.1607V12.8879H12.0747V17.7076H17.7433V15.726H25.5733V17.7076H31.2422V11.1507C31.2425 10.2648 30.6218 9.52244 29.7966 9.34515Z" fill="#33B6FF"/>
<path d="M32.9812 7.58105H30.1118V8.67927H32.9812V7.58105Z" fill="#33B6FF"/>
<path d="M27.2351 9.30469H16.2324V10.4029H27.2351V9.30469Z" fill="#33B6FF"/>
<path d="M28.7868 11.8125H26.0435V12.9107H28.7868V11.8125Z" fill="#33B6FF"/>
<path d="M17.272 11.8125H14.5291V12.9107H17.272V11.8125Z" fill="#33B6FF"/>
<path d="M13.0816 9.34514L15.2884 3.91265C15.7603 2.75066 16.8674 2 18.1101 2H23.7561V3.09821H18.1101C17.31 3.09821 16.5972 3.58156 16.2932 4.32948L13.8265 10.4028H13.462C13.0538 10.4028 12.7223 10.7384 12.7223 11.1507V16.6094H16.2183V14.6278H26.2209V16.6097H29.7175V12.8879H30.8035V17.7076H25.1349V15.726H17.3049V17.7076H11.6357V11.1507C11.6357 10.2649 12.2565 9.52243 13.0816 9.34514Z" fill="#33B6FF"/>
<path d="M12.767 7.58105H9.89746V8.67926H12.767V7.58105Z" fill="#33B6FF"/>
<path d="M26.6492 9.30469H15.6465V10.4029H26.6492V9.30469Z" fill="#33B6FF"/>
<path d="M16.8367 11.8125H14.0935V12.9108H16.8367V11.8125Z" fill="#33B6FF"/>
<path d="M28.3509 11.8125H25.6079V12.9108H28.3509V11.8125Z" fill="#33B6FF"/>
</svg>
