<svg width="36" height="36" viewBox="0 0 36 36" fill="none" xmlns="http://www.w3.org/2000/svg">
<path d="M7 17.9997C7 24.0652 12.159 29 18.4998 29C24.8413 29 30 24.0652 30 17.9997C30 11.9342 24.8413 7 18.4998 7C12.159 7 7 11.9342 7 17.9997ZM18.4998 8.69822C23.8621 8.69822 28.2246 12.8708 28.2246 17.9997C28.2246 23.1288 23.8624 27.3019 18.4998 27.3019C13.1376 27.3019 8.77539 23.1292 8.77539 17.9997C8.77539 12.8708 13.138 8.69822 18.4998 8.69822Z" fill="#33B6FF"/>
<path d="M3.68811 18.0356C3.68811 10.4177 9.96488 4.19846 17.7545 4.00797L16.4398 5.19564L17.5882 6.39803L21 3.31694L17.8299 0L16.5937 1.11646L17.7879 2.36602C9.05191 2.53969 2 9.50228 2 18.0353C2 24.9345 6.54788 30.9476 13.317 33L13.8192 31.4334C7.75972 29.5968 3.68811 24.2121 3.68811 18.0356Z" fill="#33B6FF"/>
<path d="M35 17.9647C35 11.0655 30.4517 5.05236 23.6828 3L23.1806 4.56653C29.2405 6.40347 33.3122 11.7881 33.3122 17.9647C33.3122 25.5826 27.0356 31.8016 19.2458 31.9923L20.5607 30.8046L19.4115 29.6022L16 32.6845L19.1701 36L20.4064 34.8835L19.2121 33.6339C27.948 33.46 35 26.4977 35 17.9647Z" fill="#33B6FF"/>
</svg>
