<svg width="36" height="36" viewBox="0 0 36 36" fill="none" xmlns="http://www.w3.org/2000/svg">
<path d="M30.4928 22.0169L27.8112 15.5902C27.2379 14.2156 25.8924 13.3275 24.3822 13.3275H18.4107C18.2823 8.66411 14.3869 4.90918 9.61602 4.90918C4.76489 4.90918 0.818115 8.79236 0.818115 13.5653C0.818115 17.0273 2.89116 20.1284 6.11203 21.5046L9.61602 25.0839L13.1201 21.5046C16.0077 20.2708 17.9726 17.6505 18.3483 14.6267H24.3819C25.3542 14.6267 26.2207 15.1986 26.5899 16.0835L29.5876 23.2682H30.0304C30.5264 23.2682 30.9293 23.6652 30.9293 24.1532V30.6105H26.6808V28.266H14.5254V30.6105H10.276V26.2078H8.95614V31.9092H15.8449V29.565H25.3604V31.9092H32.2495V24.1529C32.2497 23.1046 31.4954 22.2265 30.4928 22.0169ZM12.4848 20.3594L12.3579 20.4113L9.61602 23.2118L6.87417 20.4113L6.74732 20.3594C3.94729 19.2137 2.13794 16.547 2.13794 13.5653C2.13794 9.50865 5.49268 6.20818 9.61602 6.20818C13.7394 6.20818 17.0944 9.50865 17.0944 13.5653C17.0944 16.547 15.2848 19.2139 12.4848 20.3594Z" fill="#33B6FF"/>
<path d="M34.3637 19.9297H30.8767V21.2287H34.3637V19.9297Z" fill="#33B6FF"/>
<path d="M27.3789 21.9688H14.0081V23.2678H27.3789V21.9688Z" fill="#33B6FF"/>
<path d="M29.2667 24.9355H25.9329V26.2346H29.2667V24.9355Z" fill="#33B6FF"/>
<path d="M15.2734 24.9355H11.9399V26.2346H15.2734V24.9355Z" fill="#33B6FF"/>
<path d="M9.69886 9.73389C8.77337 9.73389 8.1267 9.74639 7.64502 9.7589C7.58174 9.7589 7.55632 9.78391 7.55632 9.84617V13.4636H6.99836C6.93508 13.4636 6.92236 13.501 6.92236 13.5383V14.5486C6.92236 14.5861 6.93508 14.5986 6.98565 14.5986H7.55632V15.2971H7.01107C6.94778 15.2971 6.92236 15.3096 6.92236 15.3719V16.1204C6.92236 16.1826 6.94778 16.2077 7.02379 16.2077H7.55632V17.5673C7.55632 17.6296 7.59445 17.6545 7.65774 17.6545H8.93835C9.01436 17.6545 9.02705 17.6171 9.02705 17.5548V16.2077H10.8021C10.878 16.2077 10.9035 16.1826 10.9035 16.1204V15.3719C10.9035 15.3096 10.878 15.2971 10.8148 15.2971H9.02705V14.5986H9.49603C11.4866 14.5986 12.9065 13.8752 12.9065 12.1289C12.9065 10.919 12.1584 9.73389 9.69886 9.73389ZM9.48335 13.4636H9.0268V10.894C9.24231 10.8815 9.44522 10.869 9.73674 10.869C10.9032 10.869 11.4103 11.3804 11.4103 12.1661C11.4106 13.2014 10.5738 13.4636 9.48335 13.4636Z" fill="#33B6FF"/>
</svg>
