<svg width="26" height="10" viewBox="0 0 26 10" fill="none" xmlns="http://www.w3.org/2000/svg">
<path d="M5.06667 5H10.1333V9.16667C10.1333 9.38768 10.0444 9.59964 9.886 9.75592C9.72764 9.9122 9.51285 10 9.28889 10H5.91111C5.68715 10 5.47236 9.9122 5.314 9.75592C5.15563 9.59964 5.06667 9.38768 5.06667 9.16667V5ZM15.2 5H20.2667V9.16667C20.2667 9.38768 20.1777 9.59964 20.0193 9.75592C19.861 9.9122 19.6462 10 19.4222 10H16.0444C15.8205 10 15.6057 9.9122 15.4473 9.75592C15.289 9.59964 15.2 9.38768 15.2 9.16667V5ZM0 4.16667C0 4.38768 0.0889682 4.59964 0.247332 4.75592C0.405696 4.9122 0.620484 5 0.844445 5H5.06667V0.833333C5.06667 0.61232 4.9777 0.400358 4.81934 0.244077C4.66097 0.087797 4.44618 0 4.22222 0H0.844445C0.620484 0 0.405696 0.087797 0.247332 0.244077C0.0889682 0.400358 0 0.61232 0 0.833333V4.16667ZM25.3333 0.833333C25.3333 0.61232 25.2444 0.400358 25.086 0.244077C24.9276 0.087797 24.7129 0 24.4889 0H21.1111C20.8872 0 20.6724 0.087797 20.514 0.244077C20.3556 0.400358 20.2667 0.61232 20.2667 0.833333V5H24.4889C24.7129 5 24.9276 4.9122 25.086 4.75592C25.2444 4.59964 25.3333 4.38768 25.3333 4.16667V0.833333ZM10.9778 0H14.3556C14.5795 0 14.7943 0.087797 14.9527 0.244077C15.111 0.400358 15.2 0.61232 15.2 0.833333V5H10.1333V0.833333C10.1333 0.61232 10.2223 0.400358 10.3807 0.244077C10.539 0.087797 10.7538 0 10.9778 0Z" fill="#132435"/>
</svg>
