<svg width="12" height="12" viewBox="0 0 12 12" fill="none" xmlns="http://www.w3.org/2000/svg">
<g clip-path="url(#clip0_3301_14485)">
<path d="M5.99988 11.9998C9.31341 11.9998 11.9998 9.31318 11.9998 5.99988C11.9998 2.68659 9.31365 0 5.99988 0C2.68612 0 0 2.68682 0 5.99988C0 9.31294 2.68635 11.9998 5.99988 11.9998Z" fill="#F0F0F0"/>
<path fill-rule="evenodd" clip-rule="evenodd" d="M11.1132 2.86755H5.7302V1.30078H9.72996C10.2792 1.73805 10.7474 2.26836 11.1132 2.86755ZM11.9998 6.00038H5.73348V4.43408H11.7934C11.9308 4.94481 12.0003 5.47146 11.9998 6.00038ZM5.99995 12.0003C7.35641 12.0034 8.67336 11.5437 9.73324 10.6972H2.2669C3.32662 11.5438 4.64354 12.0035 5.99995 12.0003ZM11.1198 9.13391H0.880133C0.581476 8.64685 0.354689 8.11923 0.206787 7.56738H11.7931C11.6453 8.11925 11.4185 8.64687 11.1198 9.13391Z" fill="#D80027"/>
<path fill-rule="evenodd" clip-rule="evenodd" d="M2.78549 0.933737H2.7801V0.937487L2.78549 0.933737ZM2.78549 0.933737H3.32806L2.8169 1.30053L3.01025 1.90051L2.50026 1.53373L1.99356 1.90051L2.16019 1.38279C1.71233 1.75763 1.32158 2.19584 1.00029 2.68355H1.17701L0.853577 2.91792L0.706861 3.17572L0.86014 3.65243L0.570224 3.4415L0.370306 3.90696L0.536943 4.42961H1.16974L0.666784 4.80015L0.86014 5.40013L0.35015 5.03334L0.0501555 5.25318C0.0166786 5.50068 -7.77905e-05 5.75014 2.71484e-07 5.99989H5.99988V5.05361e-06C4.86132 -0.00147573 3.74606 0.322491 2.78549 0.933737ZM3.00908 5.39709L3.01354 5.4006H3.01025L3.00908 5.39709ZM2.81666 4.80038L3.00908 5.39709L2.50003 5.03381L1.99004 5.4006L2.1834 4.80061L1.67341 4.43382H2.30621L2.49956 3.83384L2.69292 4.43382H3.32572L2.81666 4.80038ZM2.82018 3.05385L3.01354 3.65384L2.50355 3.28705L1.99356 3.65384L2.18691 3.05385L1.67692 2.68706H2.30972L2.50308 2.08707L2.69643 2.68706H3.32923L2.82018 3.05385ZM4.65671 5.03381L5.1667 5.4006L4.97334 4.80061L5.48427 4.43382H4.85147L4.65811 3.83384L4.46476 4.43382H3.83196L4.34195 4.80061L4.14859 5.4006L4.65671 5.03381ZM4.97334 3.05385L5.1667 3.65384L4.65671 3.28705L4.14672 3.65384L4.34007 3.05385L3.83008 2.68706H4.46288L4.65624 2.08707L4.84959 2.68706H5.48239L4.97334 3.05385ZM5.1667 1.90708L4.97334 1.30709L5.48427 0.940299H4.85147L4.65811 0.340311L4.46476 0.940299H3.83196L4.34195 1.30709L4.14859 1.90708L4.65858 1.54029L5.1667 1.90708Z" fill="#0052B4"/>
</g>
<defs>
<clipPath id="clip0_3301_14485">
<rect width="12" height="12" fill="white"/>
</clipPath>
</defs>
</svg>
