<svg width="173" height="56" viewBox="0 0 173 56" fill="none" xmlns="http://www.w3.org/2000/svg">
<mask id="mask0_140_25248" style="mask-type:alpha" maskUnits="userSpaceOnUse" x="0" y="0" width="173" height="56">
<rect width="173" height="56" fill="#D9D9D9"/>
</mask>
<g mask="url(#mask0_140_25248)">
<path d="M3.06657 54.9086V49.2439H7.58797V54.9086H6.60054V50.2313H4.054V54.9086H3.06657Z" fill="#5B6577"/>
<path d="M9.4067 49.2439H11.4335C12.5769 49.2439 13.3045 50.0234 13.3045 51.1148C13.3045 52.2582 12.6289 53.0377 11.4855 53.0377H10.3941V54.9606H9.4067V49.2439ZM10.3422 52.0503H11.3296C11.9013 52.0503 12.2651 51.6345 12.2651 51.1148C12.2651 50.5431 11.9013 50.1793 11.3296 50.1793H10.3422V52.0503Z" fill="#5B6577"/>
<path d="M14.3439 52.0503C14.3439 50.4392 15.5392 49.14 17.0983 49.14C18.6574 49.14 19.8527 50.4392 19.8527 52.0503C19.8527 53.6614 18.6574 54.9606 17.0983 54.9606C15.5912 55.0126 14.3439 53.7133 14.3439 52.0503ZM18.9173 52.1023C18.9173 51.0109 18.0857 50.1794 17.1503 50.1794C16.2148 50.1794 15.3833 51.0109 15.3833 52.1023C15.3833 53.1936 16.2148 54.0252 17.1503 54.0252C18.0857 54.0252 18.9173 53.1936 18.9173 52.1023Z" fill="#5B6577"/>
<path d="M20.8927 56V53.9212H21.3085C21.7762 53.2976 22.0361 52.2062 22.0361 50.6471V49.2439H25.4661V53.9212H26.1937V55.948H25.2582V54.8567H21.7762V55.948H20.8927V56ZM24.4787 53.9212V50.2313H22.9195V51.3227C22.9195 52.4141 22.6597 53.4535 22.3479 53.9212H24.4787Z" fill="#5B6577"/>
<path d="M30.9739 54.9086L30.5581 53.7653H28.2715L27.8557 54.9086H26.8683L28.999 49.2439H29.8306L31.9094 54.9086H30.9739ZM28.6352 52.8818H30.2983L29.5187 50.6471L29.4668 50.4912L29.4148 50.6471L28.6352 52.8818Z" fill="#5B6577"/>
<path d="M37.6268 51.9463L39.1859 54.9086H38.0945L36.8473 52.466H36.4315V54.9086H35.4441V52.466H34.9763L33.781 54.9086H32.6896L34.2487 51.9463L32.7416 49.2439H33.833L34.9763 51.4786H35.4441V49.2439H36.4315V51.4786H36.8992L38.0426 49.2439H39.1339L37.6268 51.9463Z" fill="#5B6577"/>
<path d="M43.9148 54.9086L43.4991 53.7653H41.2124L40.7966 54.9086H39.8092L41.94 49.2439H42.7715L44.8503 54.9086H43.9148ZM41.5242 52.8818H43.1873L42.4077 50.6471L42.3557 50.4912L42.3038 50.6471L41.5242 52.8818Z" fill="#5B6577"/>
<path d="M51.9705 54.9086L51.5548 53.7653H49.2681L48.8523 54.9086H47.8649L49.9957 49.2439H50.8272L52.906 54.9086H51.9705ZM49.6319 52.8818H51.2949L50.5154 50.6471L50.4634 50.4912L50.4114 50.6471L49.6319 52.8818Z" fill="#5B6577"/>
<path d="M54.257 54.9086V49.2439H56.4397C57.4272 49.2439 58.0508 49.8155 58.0508 50.751C58.0508 51.2707 57.739 51.7384 57.3752 51.8944C57.8949 52.0503 58.3107 52.6219 58.3107 53.2975C58.3107 54.3889 57.4791 54.9086 56.6476 54.9086H54.257ZM56.3358 51.5306C56.7516 51.5306 57.0634 51.2187 57.0634 50.803C57.0634 50.4392 56.7516 50.1274 56.3358 50.1274H55.1405V51.5306H56.3358ZM55.1925 54.0251H56.5957C57.0634 54.0251 57.3752 53.6613 57.3752 53.1936C57.3752 52.7259 57.0634 52.3621 56.5437 52.3621H55.2444V54.0251H55.1925Z" fill="#5B6577"/>
<path d="M60.8052 54.9086V50.2313H59.1942V49.2439H63.3518V50.1793H61.7407V54.8567H60.8052V54.9086Z" fill="#5B6577"/>
<path d="M64.2353 52.0503C64.2353 50.4392 65.4306 49.14 66.9897 49.14C68.5488 49.14 69.7441 50.4392 69.7441 52.0503C69.7441 53.6614 68.5488 54.9606 66.9897 54.9606C65.4306 55.0126 64.2353 53.7133 64.2353 52.0503ZM68.7567 52.1023C68.7567 51.0109 67.9252 50.1794 66.9897 50.1794C66.0542 50.1794 65.2227 51.0109 65.2227 52.1023C65.2227 53.1936 66.0542 54.0252 66.9897 54.0252C67.9252 54.0252 68.7567 53.1936 68.7567 52.1023Z" fill="#5B6577"/>
<path d="M70.7841 54.9086L71.4077 49.2439H72.4991L73.8503 53.4535L75.2016 49.2439H76.2929L76.9166 54.9086H75.9811L75.5654 50.9069L74.2661 54.9086H73.4346L72.1353 50.9069L71.7196 54.9086H70.7841Z" fill="#5B6577"/>
<path d="M78.0076 52.0503C78.0076 50.4392 79.2029 49.14 80.762 49.14C82.3211 49.14 83.5164 50.4392 83.5164 52.0503C83.5164 53.6614 82.3211 54.9606 80.762 54.9606C79.2029 55.0126 78.0076 53.7133 78.0076 52.0503ZM82.529 52.1023C82.529 51.0109 81.6975 50.1794 80.762 50.1794C79.7746 50.1794 78.995 51.0109 78.995 52.1023C78.995 53.1936 79.8265 54.0252 80.762 54.0252C81.6975 54.0252 82.529 53.1936 82.529 52.1023Z" fill="#5B6577"/>
<path d="M85.0232 54.9086V49.2439H88.2973V50.2313H85.9587V51.5306H87.102C88.1414 51.5306 88.869 52.1542 88.869 53.1416C88.869 54.181 88.1414 54.9086 87.102 54.9086H85.0232ZM86.0106 53.9732H87.102C87.5697 53.9732 87.8816 53.7133 87.8816 53.1936C87.8816 52.6219 87.4658 52.3621 87.102 52.3621H86.0106V53.9732Z" fill="#5B6577"/>
<path d="M94.014 54.9086V50.855L91.3115 54.9086H90.428V49.2439H91.3635V53.1936L94.014 49.2439H95.0014V54.9086H94.014Z" fill="#5B6577"/>
<path d="M96.1974 54.9086V53.9732C96.4053 54.0251 96.4573 54.0251 96.5612 54.0251C97.3928 54.0251 97.3928 52.1542 97.3928 49.2958H101.291V54.9606H100.355V50.2833H98.3282C98.3282 52.6739 98.2763 55.0126 96.7171 55.0126C96.5093 54.9606 96.4053 54.9086 96.1974 54.9086Z" fill="#5B6577"/>
<path d="M103.16 54.9086V49.2439H106.954V50.1793H104.148V51.5825H106.434V52.466H104.148V53.9732H107.006V54.9086H103.16Z" fill="#5B6577"/>
<path d="M112.152 54.9085V50.8548L109.449 54.9085H108.566V49.2437H109.501V53.1934L112.152 49.2437H113.139V54.9085H112.152ZM109.865 47.7366H110.541C110.541 48.0484 110.645 48.2043 110.853 48.2043C111.061 48.2043 111.164 48.0484 111.164 47.7366H111.788C111.788 48.3602 111.476 48.8279 110.801 48.8279C110.177 48.776 109.865 48.3602 109.865 47.7366Z" fill="#5B6577"/>
<path d="M116.933 52.0503C116.933 50.4392 118.128 49.14 119.687 49.14C120.415 49.14 121.038 49.3998 121.506 49.8156L120.986 50.5951C120.674 50.3353 120.155 50.1274 119.687 50.1274C118.7 50.1274 117.92 50.9589 117.92 52.0503C117.92 53.1417 118.752 53.9732 119.687 53.9732C120.155 53.9732 120.57 53.8173 120.986 53.4535L121.506 54.233C121.038 54.6488 120.415 54.9606 119.687 54.9606C118.128 55.0126 116.933 53.7133 116.933 52.0503Z" fill="#5B6577"/>
<path d="M124.677 54.9086V54.1811L126.392 52.3621C126.86 51.8424 127.224 51.3747 127.224 50.9069C127.224 50.4912 126.964 50.1274 126.444 50.1274C126.029 50.1274 125.717 50.4392 125.509 50.855L124.729 50.4912C125.093 49.6596 125.717 49.1919 126.496 49.1919C127.536 49.1919 128.211 49.9715 128.211 50.855C128.211 51.7385 127.744 52.3101 127.12 52.9338L126.081 53.9732H128.211V54.9086H124.677Z" fill="#5B6577"/>
<path d="M129.354 52.0503C129.354 50.2833 130.237 49.14 131.641 49.14C133.044 49.14 133.927 50.2833 133.927 52.0503C133.927 53.8173 133.044 54.9606 131.641 54.9606C130.237 55.0126 129.354 53.8173 129.354 52.0503ZM132.94 52.1023C132.94 50.9069 132.472 50.1794 131.641 50.1794C130.809 50.1794 130.341 50.9589 130.341 52.1023C130.341 53.2976 130.809 54.0252 131.641 54.0252C132.472 54.0252 132.94 53.2456 132.94 52.1023Z" fill="#5B6577"/>
<path d="M135.123 52.0503C135.123 50.2833 136.007 49.14 137.41 49.14C138.813 49.14 139.697 50.2833 139.697 52.0503C139.697 53.8173 138.813 54.9606 137.41 54.9606C135.955 55.0126 135.123 53.8173 135.123 52.0503ZM138.709 52.1023C138.709 50.9069 138.242 50.1794 137.41 50.1794C136.578 50.1794 136.111 50.9589 136.111 52.1023C136.111 53.2976 136.578 54.0252 137.41 54.0252C138.242 54.0252 138.709 53.2456 138.709 52.1023Z" fill="#5B6577"/>
<path d="M140.943 53.6614L141.723 53.2456C141.982 53.8173 142.294 54.0252 142.762 54.0252C143.334 54.0252 143.749 53.5574 143.749 52.9338C143.749 52.3101 143.334 51.8944 142.762 51.8944C142.398 51.8944 142.034 52.1022 141.93 52.3621H141.099L141.307 49.1919H144.321V50.1274H142.138L142.034 51.4266C142.294 51.1668 142.658 51.0628 143.022 51.0628C144.009 51.0628 144.737 51.7904 144.737 52.9338C144.737 54.1291 143.905 54.9086 142.814 54.9086C141.93 55.0126 141.307 54.5968 140.943 53.6614Z" fill="#5B6577"/>
<path d="M148.531 54.9086V49.2439H151.545V50.2313H149.518V54.9086H148.531Z" fill="#5B6577"/>
<path d="M152.376 52.0503C152.376 50.4392 153.571 49.14 155.131 49.14C156.69 49.14 157.885 50.4392 157.885 52.0503C157.885 53.6614 156.69 54.9606 155.131 54.9606C153.571 54.9606 152.376 53.7133 152.376 52.0503ZM156.95 52.1023C156.95 51.0109 156.118 50.1794 155.183 50.1794C154.195 50.1794 153.416 51.0109 153.416 52.1023C153.416 53.1936 154.247 54.0252 155.183 54.0252C156.118 54.0252 156.95 53.1936 156.95 52.1023Z" fill="#5B6577"/>
<path d="M158.925 56V53.9212H159.341C159.808 53.2976 160.068 52.2062 160.068 50.6471V49.2439H163.498V53.9212H164.226V55.948H163.29V54.8567H159.808V55.948H158.925V56ZM162.511 53.9212V50.2313H160.952V51.3227C160.952 52.4141 160.692 53.4535 160.38 53.9212H162.511Z" fill="#5B6577"/>
<path d="M169.008 54.9086L168.592 53.7653H166.357L165.942 54.9086H164.954L167.085 49.2439H167.917L169.995 54.9086H169.008ZM166.669 52.8818H168.332L167.553 50.6471L167.501 50.4912L167.449 50.6471L166.669 52.8818Z" fill="#5B6577"/>
<path d="M151.389 0.0523872C139.073 0.0523872 129.666 9.6149 129.666 21.672C129.666 22.4515 129.718 23.1791 129.77 23.9067C127.847 20.5286 124.001 18.2939 118.7 16.371C114.543 14.8119 112.672 14.2403 112.672 12.941C112.672 11.5898 113.451 10.6543 115.686 10.6543C119.012 10.6543 122.13 12.7331 123.949 14.3442L130.913 6.4967C127.119 2.80681 121.559 0.0523872 115.166 0.0523872C104.616 0.0523872 100.874 6.34078 100.874 12.5252C100.874 21.1523 108.15 24.3744 112.776 25.7776C118.908 27.5966 119.22 28.7919 119.22 30.0912C119.22 31.3904 118.232 32.4818 115.114 32.4818C111.684 32.4818 108.358 30.9747 105.76 27.8564L98.12 35.0803C102.486 40.4852 108.566 43.3436 115.374 43.3436C124.989 43.3436 131.069 37.8867 131.121 29.8833C134.291 37.7827 141.931 43.3436 151.286 43.3436C163.55 43.3436 172.957 33.6251 172.957 21.672C173.061 9.6149 163.602 0.0523872 151.389 0.0523872ZM151.389 32.118C146.244 32.118 141.515 27.5966 141.515 21.724C141.515 15.8513 146.192 11.3299 151.389 11.3299C156.535 11.3299 161.16 15.7994 161.16 21.724C161.16 27.5966 156.586 32.118 151.389 32.118Z" fill="#33B6FF"/>
<path d="M95.0534 26.6608C97.8089 26.6608 100.043 24.4271 100.043 21.6717C100.043 18.9163 97.8089 16.6826 95.0534 16.6826C92.298 16.6826 90.0643 18.9163 90.0643 21.6717C90.0643 24.4271 92.298 26.6608 95.0534 26.6608Z" fill="#33B6FF"/>
<path d="M0 21.6716C0 9.56251 9.45858 0 21.8275 0C27.2324 0 32.1695 1.87093 35.9114 5.04111L29.727 13.98C27.856 12.5248 24.5819 11.2256 21.8275 11.2256C16.6305 11.2256 11.9531 15.747 11.9531 21.6716C11.9531 27.5962 16.6824 32.1176 21.8275 32.1176C24.6339 32.1176 26.9725 31.4939 29.8309 29.3112L35.9634 38.354C32.2215 41.5242 27.2843 43.3951 21.8794 43.3951C9.45857 43.3951 0 33.6767 0 21.6716Z" fill="#2983D7"/>
<path d="M56.2829 17.7219H63.2989V42.6676H55.6592L54.412 39.5494C52.541 41.94 49.8905 43.3952 46.6684 43.3952C40.2241 43.3952 34.8712 37.5226 34.8712 30.1948C34.8712 22.9189 40.2241 16.9424 46.6684 16.9424C49.5787 16.9424 51.9693 18.1377 53.7883 20.0606L54.7238 20.9441L56.2829 17.7219ZM52.593 30.1948C52.593 28.116 51.0859 26.7128 49.111 26.7128C47.1361 26.7128 45.629 28.1679 45.629 30.1948C45.629 32.1696 47.1361 33.6248 49.111 33.6248C51.0859 33.6248 52.593 32.1696 52.593 30.1948Z" fill="#2983D7"/>
<path d="M87.5177 19.4889L82.7884 27.9081C82.1128 27.3364 81.1253 26.8167 79.8261 26.8167C77.9032 26.8167 76.6039 28.2719 76.6039 30.1948V42.6676H65.6382V17.7219H73.3298L74.5771 20.6842C76.1882 18.2416 78.267 16.9943 81.0214 16.9943C83.2042 16.9943 85.7507 17.8259 87.5177 19.4889Z" fill="#2983D7"/>
</g>
</svg>
