<svg width="257" height="58" viewBox="0 0 257 58" fill="none" xmlns="http://www.w3.org/2000/svg">
<g clip-path="url(#clip0_523_8252)">
<mask id="mask0_523_8252" style="mask-type:luminance" maskUnits="userSpaceOnUse" x="0" y="0" width="257" height="58">
<path d="M256.857 0H0V58H256.857V0Z" fill="white"/>
</mask>
<g mask="url(#mask0_523_8252)">
<path d="M32.4122 58H20.2532C20.246 52.6181 18.1094 47.4593 14.3134 43.6579C10.5141 39.8526 5.36756 37.7127 0 37.7064V25.5312C16.3939 24.2955 31.176 39.063 32.4122 58Z" fill="#B248FF"/>
<path d="M0.00610352 37.7064V25.5313C6.76177 25.5271 13.2405 22.8362 18.023 18.0477C20.3887 15.6793 22.2663 12.8665 23.5488 9.76989C24.8313 6.67327 25.4935 3.35345 25.4976 0H37.626C37.6142 9.99751 33.6473 19.5813 26.5972 26.6446C19.5396 33.7154 9.97859 37.6929 0.00610352 37.7064Z" fill="#00A8FF"/>
<path d="M57.8952 32.4687C49.3088 32.455 41.077 29.0298 34.9996 22.9422C28.9278 16.8608 25.5097 8.6091 25.4958 0H37.6259C37.6332 5.38192 39.7696 10.5407 43.5658 14.3421C47.366 18.148 52.5137 20.2881 57.8823 20.2936L57.8952 32.4687Z" fill="#FF4352"/>
<path d="M32.4125 57.9999H20.252C20.2646 47.9983 24.2352 38.4114 31.2904 31.3473C38.353 24.276 47.9198 20.3014 57.896 20.2935V32.467C51.1416 32.4739 44.6651 35.1659 39.8839 39.9538C35.1081 44.7374 32.4207 51.2284 32.4125 57.9999Z" fill="#46E650"/>
<path d="M86.5804 0.00644444L73.6316 29.7186H79.2969L82.575 22.1093H95.1161L98.4215 29.7153H104.141L91.1926 0L86.5804 0.00644444ZM84.7053 17.1761L88.8456 7.65278L92.9761 17.1761H84.7053ZM247.05 8.21828C243.411 8.21828 240.202 9.53133 238.221 11.8111L238.021 12.0463L241.004 15.1831L241.253 14.9237C241.985 14.1776 242.863 13.591 243.831 13.2004C244.801 12.8099 245.838 12.6237 246.881 12.6537C248.695 12.6537 251.675 13.1757 251.914 16.5719C250.481 16.2336 249.013 16.0628 247.541 16.0628C242.581 16.0628 237.283 17.9687 237.283 23.3144C237.283 27.9866 241.356 30.1165 245.132 30.1165C247.729 30.1663 250.241 29.1975 252.137 27.4163L252.377 29.7153H256.857V17.1422C256.854 10.5689 251.789 8.2215 247.05 8.2215V8.21828ZM245.623 25.6795C243.382 25.6795 242.207 24.4615 242.207 23.2467C242.207 21.7049 244.056 20.1534 247.58 20.1534C249.026 20.173 250.463 20.4047 251.842 20.8413C251.665 23.7027 248.482 25.6795 245.613 25.6795H245.623ZM234.477 8.60172H228.071L220.533 16.8119V8.60333H215.359V29.7298H220.533V21.4745L229.056 29.7202H235.992L224.938 18.9773L234.477 8.60172ZM157.853 8.19411C155.009 8.22522 152.292 9.38347 150.295 11.4163C148.301 13.4478 147.19 16.1897 147.206 19.0416C147.222 21.8936 148.364 24.6228 150.381 26.6317C152.4 28.643 155.129 29.7717 157.974 29.7717C160.818 29.7717 163.549 28.643 165.567 26.6317C167.583 24.6226 168.725 21.8937 168.741 19.0424C168.757 16.191 167.646 13.4496 165.652 11.4179C163.655 9.38484 160.937 8.22659 158.093 8.19572L157.853 8.19411ZM157.853 25.2719C154.484 25.2719 152.032 22.7006 152.032 19.1545C152.032 15.6068 154.484 13.0355 157.853 13.0355C161.224 13.0355 163.637 15.6101 163.637 19.1545C163.637 22.6989 161.2 25.2687 157.844 25.2687L157.853 25.2719ZM123.168 18.4376C124.118 17.4628 124.645 16.1498 124.629 14.7884C124.629 11.9319 122.64 8.59528 117.018 8.59528H107.363V29.7234H118.182C123.879 29.7234 125.912 26.4158 125.912 23.3241C125.911 22.339 125.656 21.3707 125.172 20.514C124.688 19.657 123.991 18.9405 123.149 18.4343L123.168 18.4376ZM112.544 12.9066H117.169C118.018 12.9066 119.444 13.1596 119.444 14.8512C119.444 16.6508 117.854 16.8426 117.169 16.8426H112.537L112.544 12.9066ZM118.166 25.2236H112.536V20.7898H118.155C119.792 20.7898 120.75 21.6002 120.75 23.026C120.75 24.4518 119.766 25.2236 118.155 25.2236H118.166ZM170.288 13.2723H176.405V29.7218H181.574V13.282H187.976V8.59206H170.275V13.2804L170.288 13.2723ZM200.774 8.17156C194.51 8.17156 189.787 12.8921 189.787 19.1464C189.787 25.607 194.308 30.1181 200.774 30.1181C204.994 30.1181 208.399 28.3733 210.369 25.2139L210.538 24.9432L206.547 22.1028L206.357 22.4315C205.165 24.3809 203.299 25.3879 200.811 25.3879C197.574 25.3879 195.239 23.4433 194.91 20.5223H210.901V20.1953C210.941 19.5379 210.941 19.1432 210.941 18.7034C210.963 11.4324 205.857 8.19411 200.779 8.19411L200.774 8.17156ZM195.183 16.5203C195.992 13.6816 198.584 12.6601 200.62 12.6601C203.171 12.6601 205.112 14.1617 205.675 16.5203H195.183ZM127.705 13.2788H133.824V29.7218H138.999V13.282H145.404V8.59206H127.702V13.2804L127.705 13.2788ZM92.4528 43.0988C91.77 43.0937 91.0934 43.228 90.4641 43.494C89.8348 43.7599 89.266 44.1517 88.7926 44.6455V43.2857H86.9239V58H88.7926V52.3804C89.2657 52.8746 89.8345 53.2667 90.4638 53.5326C91.0931 53.7985 91.7699 53.9328 92.4528 53.9271C93.888 53.9271 95.2638 53.3568 96.2784 52.3402C97.0367 51.5831 97.5537 50.6168 97.7635 49.5641C97.9731 48.5114 97.8664 47.4198 97.4564 46.4282C97.0465 45.4366 96.3522 44.5898 95.4616 43.9951C94.5707 43.4006 93.5241 43.0853 92.4544 43.0892V43.0988H92.4528ZM92.3292 52.0566C91.6299 52.0563 90.9462 51.8483 90.3645 51.4586C89.7829 51.069 89.3293 50.5151 89.0607 49.8671C88.8602 49.3828 88.7693 48.8597 88.7948 48.3358C88.8205 47.8118 88.9616 47.3003 89.2084 46.8379C89.4551 46.3755 89.8012 45.9739 90.2215 45.6621C90.642 45.3504 91.126 45.1364 91.6389 45.0354C92.3249 44.8988 93.0359 44.9692 93.6822 45.2374C94.3283 45.5058 94.8809 45.9603 95.2702 46.5434C95.724 47.2249 95.9281 48.0433 95.8475 48.8589C95.7671 49.6746 95.407 50.437 94.8287 51.0158C94.1654 51.6804 93.2666 52.0556 92.3292 52.0566ZM121.526 49.1486H112.91C113.051 49.9912 113.497 50.75 114.165 51.2801C114.875 51.8117 115.745 52.0856 116.629 52.0534C117.988 52.0534 118.97 51.5523 119.58 50.5518L121.102 51.4154C120.091 52.9653 118.582 53.7402 116.581 53.7402C115.849 53.7668 115.118 53.6457 114.433 53.3838C113.748 53.122 113.122 52.7249 112.592 52.2161C112.092 51.703 111.699 51.0941 111.437 50.4257C111.176 49.7574 111.051 49.043 111.07 48.3253C111.046 47.6119 111.167 46.9009 111.425 46.2358C111.683 45.5706 112.073 44.9648 112.571 44.4554C113.076 43.9408 113.682 43.5374 114.351 43.2712C115.02 43.0049 115.737 42.8813 116.456 42.9087C117.15 42.887 117.84 43.0197 118.476 43.2975C119.113 43.5752 119.68 43.9911 120.137 44.515C121.094 45.5574 121.609 46.9317 121.574 48.3478C121.576 48.6153 121.56 48.8827 121.526 49.1486ZM116.466 44.5972C115.604 44.5698 114.761 44.8559 114.093 45.4027C113.445 45.9597 113.023 46.7369 112.91 47.5858H119.794C119.695 46.7377 119.293 45.9545 118.662 45.3818C118.053 44.8549 117.27 44.5762 116.466 44.5972ZM104.406 42.9087C103.338 42.9097 102.294 43.2277 101.406 43.8229C100.517 44.418 99.8241 45.2637 99.4136 46.2534C99.0046 47.2431 98.8978 48.3324 99.1067 49.3831C99.3157 50.4339 99.8309 51.3986 100.587 52.1549C101.344 52.911 102.306 53.4256 103.354 53.6337C104.401 53.8419 105.486 53.7344 106.473 53.3249C107.46 52.9152 108.303 52.2218 108.898 51.3318C109.493 50.4418 109.812 49.3952 109.815 48.3237C109.813 46.887 109.242 45.5102 108.229 44.4957C107.214 43.4802 105.839 42.9095 104.406 42.9087ZM104.406 51.8713C103.706 51.8712 103.022 51.6629 102.44 51.273C101.858 50.8831 101.403 50.3289 101.135 49.6802C100.934 49.1956 100.843 48.6721 100.868 48.1479C100.894 47.6235 101.035 47.1115 101.282 46.6488C101.529 46.186 101.875 45.7842 102.296 45.4723C102.717 45.1604 103.201 44.9461 103.714 44.8453C104.401 44.7088 105.112 44.7792 105.759 45.0476C106.406 45.3159 106.959 45.7702 107.349 46.3533C107.804 47.0354 108.009 47.8548 107.929 48.6718C107.848 49.4887 107.488 50.2523 106.909 50.8322C106.244 51.4977 105.345 51.8715 104.406 51.8713ZM132.38 44.9677H135.701V53.5533H137.57V44.9661H140.89V43.094H132.381V44.9661L132.38 44.9677ZM127.23 48.1561L131.998 53.5533H129.52L125.066 48.5267V53.5533H123.244V43.0956H125.066V47.7952L129.31 43.0956H131.792L127.23 48.1561ZM75.8406 43.0956V53.5517H77.6578V44.8517H82.7548V53.5517H84.5705V43.0956H75.8406ZM151.687 38.6747L145.964 53.5533H148.135L149.551 49.7688H155.808L157.224 53.5533H159.395L153.675 38.6747H151.687ZM150.311 47.8983L152.678 41.6569L155.047 47.8967L150.311 47.8983ZM162.525 53.5533H164.384L168.426 43.0988H166.259L163.424 50.5808H163.534L160.699 43.0956H158.523L162.525 53.5517V53.5533ZM187.039 42.9087C185.971 42.9094 184.926 43.2272 184.038 43.8221C183.149 44.4169 182.455 45.2622 182.044 46.2518C181.739 46.9921 181.601 47.7912 181.64 48.5914C181.68 49.3918 181.895 50.1734 182.272 50.8797C182.649 51.5862 183.178 52.1998 183.82 52.6764C184.462 53.1528 185.2 53.4805 185.984 53.6355C187.032 53.8435 188.119 53.7359 189.106 53.3258C190.094 52.916 190.938 52.2221 191.534 51.3316C192.227 50.2904 192.538 49.0396 192.416 47.7933C192.293 46.5468 191.744 45.3819 190.859 44.4973C189.846 43.4815 188.472 42.9102 187.039 42.9087ZM187.039 51.8713C186.517 51.871 186 51.7544 185.528 51.5301C185.054 51.306 184.639 50.9794 184.306 50.5742C183.974 50.169 183.736 49.6952 183.608 49.1866C183.479 48.678 183.465 48.1473 183.566 47.6325C183.669 47.1173 183.884 46.6314 184.195 46.2096C184.507 45.7878 184.908 45.4407 185.371 45.1933C185.833 44.946 186.343 44.8045 186.865 44.7792C187.388 44.7538 187.91 44.8451 188.393 45.0467C189.153 45.3584 189.779 45.9252 190.167 46.65C190.556 47.3749 190.679 48.2127 190.519 49.0195C190.36 49.8264 189.925 50.5523 189.289 51.0725C188.654 51.5929 187.859 51.8754 187.039 51.8713ZM177.503 50.2071C177.503 50.3005 177.509 50.3956 177.522 50.489C177.575 50.8434 177.753 51.1657 178.024 51.3993C178.278 51.6216 178.588 51.7698 178.922 51.8262C179.053 51.8488 179.185 51.8584 179.318 51.8584H180.715V53.5533H178.899C178.415 53.516 177.939 53.3851 177.503 53.1683C177.223 53.0302 176.963 52.8557 176.729 52.6495C176.389 52.3465 176.119 51.972 175.939 51.5527C175.759 51.1334 175.673 50.6796 175.687 50.2232V44.8694H173.87V43.1133H175.687V40.9287H177.503V43.1117H180.715V44.8694H177.503V50.2071ZM170.081 43.0956H171.897V53.5517H170.081V43.0956ZM170.988 41.6939C171.306 41.6944 171.611 41.568 171.837 41.3426C172.062 41.1172 172.189 40.8112 172.189 40.4921C172.189 40.1729 172.064 39.8666 171.839 39.6406C171.614 39.4145 171.309 39.2874 170.991 39.2869C170.674 39.2865 170.368 39.4129 170.144 39.6383C169.917 39.8637 169.791 40.1697 169.791 40.4888C169.791 40.808 169.916 41.1143 170.141 41.3403C170.365 41.5663 170.67 41.6935 170.988 41.6939Z" fill="black"/>
</g>
</g>
<defs>
<clipPath id="clip0_523_8252">
<rect width="256.857" height="58" fill="white"/>
</clipPath>
</defs>
</svg>
