<svg width="235" height="59" viewBox="0 0 235 59" fill="none" xmlns="http://www.w3.org/2000/svg">
<mask id="mask0_113_9114" style="mask-type:alpha" maskUnits="userSpaceOnUse" x="0" y="0" width="235" height="59">
<rect width="234.033" height="59" fill="#D9D9D9"/>
</mask>
<g mask="url(#mask0_113_9114)">
<path d="M4.14844 80.0068V72.3436H10.265V80.0068H8.92917V73.6793H5.48423V80.0068H4.14844Z" fill="#2983D7"/>
<path d="M12.7253 72.3436H15.4672C17.0139 72.3436 17.9982 73.3981 17.9982 74.8745C17.9982 76.4212 17.0842 77.4758 15.5375 77.4758H14.0611V80.0771H12.7253V72.3436ZM13.9908 76.14H15.3266C16.1 76.14 16.5921 75.5776 16.5921 74.8745C16.5921 74.1012 16.1 73.609 15.3266 73.609H13.9908V76.14Z" fill="#2983D7"/>
<path d="M19.4043 76.14C19.4043 73.9606 21.0213 72.203 23.1305 72.203C25.2396 72.203 26.8566 73.9606 26.8566 76.14C26.8566 78.3195 25.2396 80.0771 23.1305 80.0771C21.0916 80.1474 19.4043 78.3898 19.4043 76.14ZM25.5911 76.2104C25.5911 74.734 24.4663 73.6091 23.2008 73.6091C21.9353 73.6091 20.8104 74.734 20.8104 76.2104C20.8104 77.6868 21.9353 78.8117 23.2008 78.8117C24.4663 78.8117 25.5911 77.6868 25.5911 76.2104Z" fill="#2983D7"/>
<path d="M28.2635 81.4832V78.671H28.826C29.4587 77.8273 29.8102 76.3509 29.8102 74.2418V72.3436H34.4504V78.671H35.4346V81.4129H34.1691V79.9365H29.4587V81.4129H28.2635V81.4832ZM33.1146 78.671V73.6793H31.0054V75.1558C31.0054 76.6322 30.6539 78.0383 30.2321 78.671H33.1146Z" fill="#2983D7"/>
<path d="M41.9013 80.0068L41.3389 78.4601H38.2454L37.683 80.0068H36.3472L39.2297 72.3436H40.3546L43.1668 80.0068H41.9013ZM38.7376 77.2649H40.9873L39.9328 74.2418L39.8625 74.0309L39.7922 74.2418L38.7376 77.2649Z" fill="#2983D7"/>
<path d="M50.9013 75.9994L53.0105 80.0068H51.534L49.8467 76.7025H49.2843V80.0068H47.9485V76.7025H47.3157L45.6987 80.0068H44.2223L46.3315 75.9994L44.2926 72.3436H45.769L47.3157 75.3667H47.9485V72.3436H49.2843V75.3667H49.917L51.4637 72.3436H52.9401L50.9013 75.9994Z" fill="#2983D7"/>
<path d="M59.4077 80.0068L58.8453 78.4601H55.7519L55.1894 80.0068H53.8536L56.7361 72.3436H57.861L60.6732 80.0068H59.4077ZM56.1737 77.2649H58.4234L57.3689 74.2418L57.2986 74.0309L57.2283 74.2418L56.1737 77.2649Z" fill="#2983D7"/>
<path d="M70.3054 80.0068L69.743 78.4601H66.6496L66.0871 80.0068H64.7513L67.6338 72.3436H68.7587L71.5709 80.0068H70.3054ZM67.1417 77.2649H69.3915L68.3369 74.2418L68.2666 74.0309L68.1963 74.2418L67.1417 77.2649Z" fill="#2983D7"/>
<path d="M73.3985 80.0068V72.3436H76.3513C77.6871 72.3436 78.5308 73.1169 78.5308 74.3824C78.5308 75.0854 78.1089 75.7182 77.6168 75.9291C78.3199 76.14 78.8823 76.9134 78.8823 77.8273C78.8823 79.3037 77.7574 80.0068 76.6325 80.0068H73.3985ZM76.2107 75.437C76.7732 75.437 77.195 75.0151 77.195 74.4527C77.195 73.9606 76.7732 73.5387 76.2107 73.5387H74.5937V75.437H76.2107ZM74.664 78.8116H76.5622C77.195 78.8116 77.6168 78.3195 77.6168 77.6867C77.6168 77.054 77.195 76.5619 76.4919 76.5619H74.7343V78.8116H74.664Z" fill="#2983D7"/>
<path d="M82.257 80.0068V73.6793H80.0775V72.3436H85.7019V73.609H83.5224V79.9365H82.257V80.0068Z" fill="#2983D7"/>
<path d="M86.8971 76.14C86.8971 73.9606 88.5141 72.203 90.6232 72.203C92.7324 72.203 94.3494 73.9606 94.3494 76.14C94.3494 78.3195 92.7324 80.0771 90.6232 80.0771C88.5141 80.1474 86.8971 78.3898 86.8971 76.14ZM93.0136 76.2104C93.0136 74.734 91.8887 73.6091 90.6232 73.6091C89.3577 73.6091 88.2329 74.734 88.2329 76.2104C88.2329 77.6868 89.3577 78.8117 90.6232 78.8117C91.8887 78.8117 93.0136 77.6868 93.0136 76.2104Z" fill="#2983D7"/>
<path d="M95.7563 80.0068L96.5999 72.3436H98.0763L99.9043 78.0383L101.732 72.3436H103.209L104.052 80.0068H102.787L102.224 74.5933L100.467 80.0068H99.3418L97.5842 74.5933L97.0218 80.0068H95.7563Z" fill="#2983D7"/>
<path d="M105.528 76.14C105.528 73.9606 107.145 72.203 109.254 72.203C111.363 72.203 112.98 73.9606 112.98 76.14C112.98 78.3195 111.363 80.0771 109.254 80.0771C107.145 80.1474 105.528 78.3898 105.528 76.14ZM111.645 76.2104C111.645 74.734 110.52 73.6091 109.254 73.6091C107.919 73.6091 106.864 74.734 106.864 76.2104C106.864 77.6868 107.989 78.8117 109.254 78.8117C110.52 78.8117 111.645 77.6868 111.645 76.2104Z" fill="#2983D7"/>
<path d="M115.019 80.0068V72.3436H119.448V73.6793H116.284V75.437H117.831C119.237 75.437 120.221 76.2806 120.221 77.6164C120.221 79.0225 119.237 80.0068 117.831 80.0068H115.019ZM116.355 78.7413H117.831C118.464 78.7413 118.886 78.3898 118.886 77.6867C118.886 76.9134 118.323 76.5619 117.831 76.5619H116.355V78.7413Z" fill="#2983D7"/>
<path d="M127.182 80.0068V74.523L123.526 80.0068H122.33V72.3436H123.596V77.6867L127.182 72.3436H128.517V80.0068H127.182Z" fill="#2983D7"/>
<path d="M130.135 80.0068V78.7413C130.417 78.8116 130.487 78.8116 130.627 78.8116C131.752 78.8116 131.752 76.2806 131.752 72.4138H137.025V80.0771H135.76V73.7496H133.018C133.018 76.9837 132.947 80.1474 130.838 80.1474C130.557 80.0771 130.417 80.0068 130.135 80.0068Z" fill="#2983D7"/>
<path d="M139.555 80.0068V72.3436H144.687V73.609H140.89V75.5073H143.984V76.7025H140.89V78.7413H144.757V80.0068H139.555Z" fill="#2983D7"/>
<path d="M151.718 80.0066V74.5228L148.063 80.0066H146.867V72.3433H148.133V77.6865L151.718 72.3433H153.054V80.0066H151.718ZM148.625 70.3045H149.539C149.539 70.7263 149.68 70.9372 149.961 70.9372C150.242 70.9372 150.383 70.7263 150.383 70.3045H151.226C151.226 71.1481 150.804 71.7809 149.89 71.7809C149.047 71.7106 148.625 71.1481 148.625 70.3045Z" fill="#2983D7"/>
<path d="M158.186 76.14C158.186 73.9606 159.803 72.203 161.912 72.203C162.896 72.203 163.74 72.5545 164.372 73.1169L163.669 74.1715C163.248 73.82 162.545 73.5388 161.912 73.5388C160.576 73.5388 159.521 74.6636 159.521 76.14C159.521 77.6165 160.646 78.7413 161.912 78.7413C162.545 78.7413 163.107 78.5304 163.669 78.0383L164.372 79.0929C163.74 79.6553 162.896 80.0771 161.912 80.0771C159.803 80.1474 158.186 78.3898 158.186 76.14Z" fill="#2983D7"/>
<path d="M168.663 80.0068V79.0225L170.983 76.5619C171.616 75.8588 172.108 75.2261 172.108 74.5933C172.108 74.0309 171.756 73.5388 171.053 73.5388C170.491 73.5388 170.069 73.9606 169.788 74.523L168.733 74.0309C169.225 72.906 170.069 72.2733 171.123 72.2733C172.53 72.2733 173.443 73.3278 173.443 74.523C173.443 75.7182 172.811 76.4916 171.967 77.3352L170.561 78.7413H173.443V80.0068H168.663Z" fill="#2983D7"/>
<path d="M174.989 76.14C174.989 73.7497 176.184 72.203 178.083 72.203C179.981 72.203 181.176 73.7497 181.176 76.14C181.176 78.5304 179.981 80.0771 178.083 80.0771C176.184 80.1474 174.989 78.5304 174.989 76.14ZM179.84 76.2104C179.84 74.5933 179.207 73.6091 178.083 73.6091C176.958 73.6091 176.325 74.6637 176.325 76.2104C176.325 77.8274 176.958 78.8117 178.083 78.8117C179.207 78.8117 179.84 77.7571 179.84 76.2104Z" fill="#2983D7"/>
<path d="M182.794 76.14C182.794 73.7497 183.989 72.203 185.887 72.203C187.786 72.203 188.981 73.7497 188.981 76.14C188.981 78.5304 187.786 80.0771 185.887 80.0771C183.919 80.1474 182.794 78.5304 182.794 76.14ZM187.645 76.2104C187.645 74.5933 187.012 73.6091 185.887 73.6091C184.762 73.6091 184.13 74.6637 184.13 76.2104C184.13 77.8274 184.762 78.8117 185.887 78.8117C187.012 78.8117 187.645 77.7571 187.645 76.2104Z" fill="#2983D7"/>
<path d="M190.667 78.3195L191.721 77.7571C192.073 78.5304 192.495 78.8116 193.127 78.8116C193.901 78.8116 194.463 78.1789 194.463 77.3352C194.463 76.4916 193.901 75.9291 193.127 75.9291C192.635 75.9291 192.143 76.2103 192.003 76.5619H190.878L191.159 72.2733H195.237V73.5388H192.284L192.143 75.2964C192.495 74.9449 192.987 74.8042 193.479 74.8042C194.815 74.8042 195.799 75.7885 195.799 77.3352C195.799 78.9522 194.674 80.0068 193.198 80.0068C192.003 80.1474 191.159 79.585 190.667 78.3195Z" fill="#2983D7"/>
<path d="M200.932 80.0068V72.3436H205.01V73.6793H202.268V80.0068H200.932Z" fill="#2983D7"/>
<path d="M206.133 76.14C206.133 73.9606 207.751 72.203 209.86 72.203C211.969 72.203 213.586 73.9606 213.586 76.14C213.586 78.3195 211.969 80.0771 209.86 80.0771C207.751 80.0771 206.133 78.3898 206.133 76.14ZM212.32 76.2104C212.32 74.734 211.195 73.6091 209.93 73.6091C208.594 73.6091 207.54 74.734 207.54 76.2104C207.54 77.6868 208.664 78.8117 209.93 78.8117C211.195 78.8117 212.32 77.6868 212.32 76.2104Z" fill="#2983D7"/>
<path d="M214.993 81.4832V78.671H215.555C216.188 77.8273 216.539 76.3509 216.539 74.2418V72.3436H221.18V78.671H222.164V81.4129H220.898V79.9365H216.188V81.4129H214.993V81.4832ZM219.844 78.671V73.6793H217.735V75.1558C217.735 76.6322 217.383 78.0383 216.961 78.671H219.844Z" fill="#2983D7"/>
<path d="M228.633 80.0068L228.07 78.4601H225.047L224.485 80.0068H223.149L226.032 72.3436H227.156L229.969 80.0068H228.633ZM225.469 77.2649H227.719L226.664 74.2418L226.594 74.0309L226.524 74.2418L225.469 77.2649Z" fill="#2983D7"/>
<path d="M204.799 0.0708691C188.136 0.0708691 175.411 13.007 175.411 29.3177C175.411 30.3723 175.482 31.3566 175.552 32.3408C172.951 27.771 167.748 24.7479 160.577 22.1466C154.952 20.0375 152.422 19.2641 152.422 17.5065C152.422 15.6786 153.476 14.4131 156.499 14.4131C160.999 14.4131 165.217 17.2253 167.678 19.4047L177.099 8.78869C171.966 3.79704 164.444 0.0708691 155.796 0.0708691C141.524 0.0708691 136.462 8.57777 136.462 16.9441C136.462 28.6147 146.305 32.9736 152.562 34.8718C160.858 37.3325 161.28 38.9495 161.28 40.7071C161.28 42.4648 159.944 43.9412 155.726 43.9412C151.086 43.9412 146.586 41.9023 143.071 37.684L132.736 47.4564C138.642 54.7681 146.867 58.6349 156.077 58.6349C169.084 58.6349 177.309 51.2529 177.38 40.4259C181.668 51.1123 192.003 58.6349 204.658 58.6349C221.25 58.6349 233.975 45.4879 233.975 29.3177C234.116 13.007 221.32 0.0708691 204.799 0.0708691ZM204.799 43.449C197.839 43.449 191.441 37.3325 191.441 29.388C191.441 21.4436 197.768 15.327 204.799 15.327C211.759 15.327 218.016 21.3733 218.016 29.388C218.016 37.3325 211.829 43.449 204.799 43.449Z" fill="#33B6FF"/>
<path d="M128.588 36.0666C132.315 36.0666 135.337 33.0449 135.337 29.3174C135.337 25.5898 132.315 22.5681 128.588 22.5681C124.86 22.5681 121.838 25.5898 121.838 29.3174C121.838 33.0449 124.86 36.0666 128.588 36.0666Z" fill="#33B6FF"/>
<path d="M0 29.3172C0 12.9361 12.7955 0 29.5281 0C36.8398 0 43.5188 2.53098 48.5807 6.81958L40.2144 18.912C37.6835 16.9435 33.2542 15.1859 29.5281 15.1859C22.4976 15.1859 16.1701 21.3024 16.1701 29.3172C16.1701 37.3319 22.5679 43.4484 29.5281 43.4484C33.3245 43.4484 36.4883 42.6048 40.355 39.652L48.651 51.885C43.5891 56.1736 36.9101 58.7046 29.5984 58.7046C12.7955 58.7046 0 45.5576 0 29.3172Z" fill="#2983D7"/>
<path d="M76.1391 23.9741H85.6303V57.7205H75.2955L73.6081 53.5022C71.0772 56.7362 67.4916 58.7048 63.1327 58.7048C54.4149 58.7048 47.1735 50.7603 47.1735 40.8473C47.1735 31.0046 54.4149 22.9195 63.1327 22.9195C67.0698 22.9195 70.3038 24.5366 72.7645 27.1378L74.03 28.333L76.1391 23.9741ZM71.1475 40.8473C71.1475 38.0351 69.1086 36.1369 66.437 36.1369C63.7654 36.1369 61.7266 38.1054 61.7266 40.8473C61.7266 43.5189 63.7654 45.4874 66.437 45.4874C69.1086 45.4874 71.1475 43.5189 71.1475 40.8473Z" fill="#2983D7"/>
<path d="M118.393 26.3645L111.996 37.7539C111.082 36.9805 109.746 36.2775 107.988 36.2775C105.387 36.2775 103.629 38.246 103.629 40.8473V57.7205H88.795V23.9741H99.2001L100.887 27.9815C103.067 24.6771 105.879 22.9898 109.605 22.9898C112.558 22.9898 116.003 24.1147 118.393 26.3645Z" fill="#2983D7"/>
</g>
</svg>
