<svg width="165" height="60" viewBox="0 0 165 60" fill="none" xmlns="http://www.w3.org/2000/svg">
<g clip-path="url(#clip0_1152_29490)">
<mask id="mask0_1152_29490" style="mask-type:luminance" maskUnits="userSpaceOnUse" x="0" y="0" width="165" height="60">
<path d="M164.548 0.0175781H0V59.2581H164.548V0.0175781Z" fill="white"/>
</mask>
<g mask="url(#mask0_1152_29490)">
<path fill-rule="evenodd" clip-rule="evenodd" d="M11.2016 0.0175781L8.39948 7.76755H47.2311L50.0332 0.0175781H11.2016ZM6.99751 11.6407L4.19536 19.3889H43.027L45.8291 11.6407H6.99751ZM2.80215 23.264L0 31.0122H38.8316L41.632 23.264H2.80215Z" fill="white"/>
<path fill-rule="evenodd" clip-rule="evenodd" d="M82.5536 33.9648V34.1283C84.3279 34.7859 86.0231 35.9359 86.9114 36.6745C89.6553 38.9745 90.8669 42.0131 90.8669 45.9556C90.8669 52.446 87.4764 57.127 81.9071 58.6058C80.2119 59.0982 78.4376 59.2635 75.1266 59.2635H58.2598V11.7891H73.1913C76.2587 11.7891 78.3562 11.9526 80.2119 12.4449C85.6208 13.9238 89.1717 17.7027 89.1717 23.6972C89.1717 26.9011 88.0415 29.6126 86.1858 31.4186C85.3789 32.2397 84.2488 33.2262 82.5536 33.9648ZM67.622 38.9745V51.4595H74.0795C76.0146 51.4595 77.7912 51.2959 79.084 50.0633C80.3747 48.8306 80.9397 47.2709 80.9397 45.217C80.9397 43.6573 80.5351 42.1785 79.7282 41.1111C78.3562 39.386 76.661 38.9745 73.7564 38.9745H67.622ZM67.5407 30.7608H72.7869C74.4008 30.7608 75.2078 30.7608 76.0146 30.5147C78.1958 29.857 79.5677 27.8876 79.5677 25.176C79.5677 21.9739 78.1144 20.5759 76.0146 19.92C75.1266 19.6739 74.2402 19.5913 72.4638 19.5913H67.5407V30.7608ZM104.91 59.2635V19.7548H91.4319V11.7891H128.882L126.22 19.7548H114.273V59.2635H104.91ZM131.787 59.2635V11.7891H162.136L159.473 19.7548H141.07V30.2685H148.576C154.629 30.2685 157.778 31.7473 159.957 33.6359C161.652 35.1148 164.557 38.3995 164.557 44.89C164.557 51.2959 161.57 54.8269 159.068 56.6346C156.164 58.6867 153.097 59.2635 146.881 59.2635H131.787ZM141.07 51.2959H148.092C150.755 51.2959 152.369 50.6383 153.499 49.1594C154.064 48.4209 154.871 47.1056 154.871 44.642C154.871 42.1785 154.064 40.4534 152.45 39.2207C151.483 38.4821 150.19 38.0725 148.011 38.0725H141.07V51.2959Z" fill="white"/>
</g>
</g>
<defs>
<clipPath id="clip0_1152_29490">
<rect width="165" height="60" fill="white"/>
</clipPath>
</defs>
</svg>
